<svg width="18" height="18" viewBox="0 0 18 18" fill="none" xmlns="http://www.w3.org/2000/svg">
<g id="Group">
<path id="Vector" fill-rule="evenodd" clip-rule="evenodd" d="M15.2001 2.79262C13.5549 1.15289 11.3674 0.25 9.0365 0.25C4.23391 0.25 0.325611 4.13918 0.323004 8.92087C0.323004 10.449 0.724523 11.9409 1.48585 13.2563L0.25 17.75L4.87008 16.5436C6.14243 17.2337 7.57643 17.5995 9.03389 17.5995H9.0365C13.8391 17.5995 17.7474 13.7103 17.75 8.92865C17.75 6.61175 16.8453 4.43236 15.2001 2.79522M9.0365 16.1336H9.03389C7.73547 16.1336 6.46052 15.786 5.34721 15.1295L5.08388 14.9739L2.34364 15.69L3.07628 13.0306L2.9042 12.7582C2.17938 11.6114 1.79611 10.2856 1.79611 8.92346C1.79611 4.94867 5.04738 1.7159 9.04172 1.7159C10.9763 1.7159 12.7936 2.46831 14.1624 3.83043C15.5286 5.19255 16.2821 7.00352 16.2821 8.92865C16.2821 12.9034 13.0308 16.1362 9.03911 16.1362M13.01 10.737C12.791 10.6281 11.722 10.104 11.5212 10.0313C11.3205 9.95867 11.1771 9.92235 11.0311 10.1403C10.8851 10.3582 10.4679 10.846 10.3427 10.9887C10.215 11.134 10.0898 11.1521 9.87083 11.0432C9.65182 10.9342 8.95046 10.7059 8.11874 9.96905C7.47214 9.39566 7.03412 8.68477 6.90636 8.46942C6.77861 8.25148 6.89332 8.13473 7.00283 8.02835C7.10191 7.93236 7.22184 7.77409 7.32874 7.64956C7.43824 7.52242 7.47475 7.43162 7.54775 7.28892C7.62075 7.14362 7.58425 7.01649 7.5295 6.91012C7.47475 6.80115 7.03933 5.7348 6.85943 5.30152C6.68214 4.87861 6.50223 4.93569 6.36926 4.9305C6.24151 4.92532 6.09811 4.92272 5.9521 4.92272C5.80609 4.92272 5.57144 4.97721 5.37068 5.19255C5.16992 5.41049 4.60936 5.93458 4.60936 7.00093C4.60936 8.06727 5.38893 9.09729 5.49844 9.24259C5.60794 9.38788 7.03412 11.5751 9.21901 12.5143C9.73786 12.7374 10.1446 12.8697 10.4601 12.9709C10.9815 13.137 11.456 13.1136 11.8315 13.0565C12.2487 12.9943 13.1195 12.5324 13.302 12.0265C13.4845 11.5206 13.4845 11.0873 13.4298 10.9965C13.375 10.9057 13.229 10.8512 13.0126 10.7422" fill="black"/>
</g>
</svg>
