<svg width="48" height="48" viewBox="0 0 48 48" fill="none" xmlns="http://www.w3.org/2000/svg">
<mask id="path-1-inside-1_1008_10257" fill="white">
<path d="M0 24C0 10.7452 10.7452 0 24 0C37.2548 0 48 10.7452 48 24C48 37.2548 37.2548 48 24 48C10.7452 48 0 37.2548 0 24Z"/>
</mask>
<path d="M24 46C11.8497 46 2 36.1503 2 24H-2C-2 38.3594 9.6406 50 24 50V46ZM46 24C46 36.1503 36.1503 46 24 46V50C38.3594 50 50 38.3594 50 24H46ZM24 2C36.1503 2 46 11.8497 46 24H50C50 9.6406 38.3594 -2 24 -2V2ZM24 -2C9.6406 -2 -2 9.6406 -2 24H2C2 11.8497 11.8497 2 24 2V-2Z" fill="white" mask="url(#path-1-inside-1_1008_10257)"/>
<path fill-rule="evenodd" clip-rule="evenodd" d="M17.7197 23.4697C18.0126 23.1768 18.4874 23.1768 18.7803 23.4697L23.5 28.1893V17.5C23.5 17.0858 23.8358 16.75 24.25 16.75C24.6642 16.75 25 17.0858 25 17.5V28.1893L29.7197 23.4697C30.0126 23.1768 30.4874 23.1768 30.7803 23.4697C31.0732 23.7626 31.0732 24.2374 30.7803 24.5303L24.7803 30.5303C24.4874 30.8232 24.0126 30.8232 23.7197 30.5303L17.7197 24.5303C17.4268 24.2374 17.4268 23.7626 17.7197 23.4697Z" fill="white"/>
</svg>
