<svg width="24" height="24" viewBox="0 0 24 24" fill="none" xmlns="http://www.w3.org/2000/svg">
<path d="M7.99996 12H18.4C18.6121 12 18.8156 12.0843 18.9657 12.2343C19.1157 12.3843 19.2 12.5878 19.2 12.8C19.2 13.8609 18.7785 14.8783 18.0284 15.6284C17.2782 16.3786 16.2608 16.8 15.2 16.8H14.7216C14.6502 16.8 14.5801 16.8191 14.5185 16.8554C14.457 16.8916 14.4063 16.9436 14.3717 17.0061C14.3371 17.0685 14.3198 17.1391 14.3217 17.2105C14.3236 17.2819 14.3445 17.3515 14.3824 17.412L15.6176 19.388C15.6554 19.4485 15.6764 19.5181 15.6782 19.5895C15.6801 19.6609 15.6628 19.7315 15.6282 19.7939C15.5936 19.8564 15.5429 19.9084 15.4814 19.9446C15.4199 19.9809 15.3498 20 15.2784 20H6.72156C6.65016 20 6.58006 19.9809 6.51854 19.9446C6.45702 19.9084 6.40632 19.8564 6.37171 19.7939C6.33709 19.7315 6.31983 19.6609 6.3217 19.5895C6.32358 19.5181 6.34452 19.4485 6.38236 19.388L7.99996 16.8" stroke="#5C5C5C" stroke-width="1.5" stroke-linecap="round" stroke-linejoin="round"/>
<path d="M8.79999 16.8C7.73912 16.8 6.72171 16.3786 5.97156 15.6284C5.22142 14.8783 4.79999 13.8609 4.79999 12.8V5.6C4.79999 5.17565 4.96856 4.76869 5.26862 4.46863C5.56868 4.16857 5.97564 4 6.39999 4H12.8C13.2243 4 13.6313 4.16857 13.9314 4.46863C14.2314 4.76869 14.4 5.17565 14.4 5.6V12" stroke="#5C5C5C" stroke-width="1.5" stroke-linecap="round" stroke-linejoin="round"/>
</svg>
