<svg width="70" height="73" viewBox="0 0 70 73" fill="none" xmlns="http://www.w3.org/2000/svg">
<path fill-rule="evenodd" clip-rule="evenodd" d="M7.90468 14.1004C7.90468 6.48233 14.1022 0.28479 21.7203 0.28479C27.7909 0.28479 32.9435 4.21932 34.793 9.66199C37.1912 10.3582 39.2969 11.9382 40.8552 13.8269C42.5419 15.8712 43.676 18.3848 43.8087 20.7499C43.8086 20.7499 43.8087 20.75 43.8087 20.7499C43.8315 21.1564 43.6825 21.5416 43.4203 21.8252L43.4132 21.8328L43.4061 21.8403C43.1337 22.1238 42.7519 22.2897 42.3529 22.2897H22.0046C21.6111 22.2897 21.2243 22.1299 20.9442 21.8327L20.9407 21.829L20.9372 21.8252C20.675 21.5416 20.526 21.1564 20.5488 20.75C20.6703 18.5839 21.6312 16.295 23.0788 14.3606C24.2924 12.7388 25.893 11.3055 27.7372 10.3766C26.4803 8.33332 24.2521 6.99636 21.7203 6.99636C17.8042 6.99636 14.6162 10.1843 14.6162 14.1004V37.8586H67.7042C68.2905 37.8586 68.8483 38.1044 69.2437 38.5357L69.2465 38.5387C69.6394 38.9707 69.8355 39.5522 69.7786 40.1385C69.0207 48.138 63.5462 57.2323 55.5671 63.4119L55.5663 63.4125C55.4311 63.517 55.2916 63.617 55.151 63.7128L56.0911 64.5621C57.9333 66.2238 58.0797 69.0658 56.4162 70.908L56.4154 70.9089C55.5284 71.889 54.3049 72.3891 53.0819 72.3891C52.0105 72.3891 50.9291 72.0075 50.0707 71.2312M50.07 71.2306L45.7458 67.3251C45.0835 67.406 44.3886 67.4712 43.6761 67.4712H26.6194C25.9062 67.4712 25.2113 67.4061 24.5504 67.326L20.2279 71.2311L20.2266 71.2323C19.3687 72.0047 18.2915 72.3891 17.2152 72.3891C15.9922 72.3891 14.7674 71.8914 13.8804 70.9075C12.2198 69.0665 12.3615 66.2268 14.2022 64.5629L15.1427 63.7126C15.0023 63.6168 14.8628 63.5168 14.7279 63.4125L14.727 63.4119C6.74776 57.2322 1.27482 48.1379 0.515533 40.1385C0.458761 39.5551 0.653706 38.9709 1.052 38.5371C1.44738 38.1018 2.00719 37.8586 2.58997 37.8586H7.90468V14.1004M21.7203 2.44935C15.2977 2.44935 10.0692 7.67778 10.0692 14.1004V40.0232H2.67909C3.40247 47.2797 8.46417 55.8234 16.0515 61.6999C16.3718 61.9474 16.6987 62.1464 17.0804 62.3789C17.2137 62.46 17.3537 62.5453 17.5024 62.638L18.7191 63.3972L15.6538 66.1686C14.7008 67.0301 14.6259 68.5022 15.4877 69.4578C15.9456 69.9658 16.5767 70.2245 17.2152 70.2245C17.7747 70.2245 18.3304 70.0263 18.7768 69.6249M18.7782 69.6237L23.839 65.0516L24.3346 65.1167C25.1332 65.2216 25.8777 65.3066 26.6194 65.3066H43.6761C44.4161 65.3066 45.1606 65.2216 45.9594 65.1155L46.4557 65.0495L51.5215 69.6248L51.5222 69.6254C51.9652 70.0262 52.5228 70.2245 53.0819 70.2245C53.7174 70.2245 54.3497 69.9656 54.8105 69.4564C55.6715 68.502 55.5954 67.03 54.6413 66.1695L54.6407 66.1689L51.5718 63.3963L52.7915 62.6373C52.937 62.5468 53.0742 62.4634 53.2049 62.3839C53.5906 62.1494 53.9204 61.9488 54.2426 61.6999C61.8301 55.8232 66.8931 47.2795 67.6151 40.0232H12.4517V14.1004C12.4517 8.98889 16.6088 4.8318 21.7203 4.8318C25.532 4.8318 28.8002 7.1471 30.2212 10.4812L30.666 11.5248L29.6026 11.92C27.7499 12.6086 26.0635 13.9848 24.8118 15.6574C23.7423 17.0867 23.0366 18.6698 22.794 20.1251H41.5634C41.2937 18.5094 40.4531 16.7408 39.1856 15.2044C37.7236 13.4325 35.7822 12.077 33.7073 11.6173L33.0805 11.4784L32.9019 10.8617C31.4963 6.00819 27.0173 2.44935 21.7203 2.44935" fill="#123752"/>
</svg>
