<svg width="73" height="49" viewBox="0 0 73 49" fill="none" xmlns="http://www.w3.org/2000/svg">
<path d="M2.68074 30.9439V25.3002C2.68507 20.9379 6.22051 17.4039 10.5814 17.3995H62.5048C66.8656 17.4039 70.4011 20.9379 70.4054 25.3002V30.9439H2.68074ZM70.4054 38.8445H2.68074V33.2008H70.4054V38.8445ZM68.1485 46.7466H67.02V41.1029H68.1485V46.7466ZM6.06755 46.7466H4.93909V41.1029H6.06755V46.7466ZM32.0278 15.1412H19.6119V10.6259C19.6119 10.0025 20.117 9.49747 20.7404 9.49747H30.8993C31.5227 9.49747 32.0278 10.0025 32.0278 10.6259V15.1412ZM53.4742 15.1412H41.0583V10.6259C41.0583 10.0025 41.5634 9.49747 42.1868 9.49747H52.3458C52.9692 9.49747 53.4742 10.0025 53.4742 10.6259V15.1412ZM13.9682 6.11211C13.9682 4.24193 15.4848 2.7253 17.355 2.7253H55.7326C57.6028 2.7253 59.118 4.24193 59.118 6.11211V15.1412H55.7326V10.6259C55.7326 8.75575 54.216 7.24056 52.3458 7.24056H42.1868C40.3166 7.24056 38.8014 8.75575 38.8014 10.6259V15.1412H34.2862V10.6259C34.2862 8.75575 32.7695 7.24056 30.8993 7.24056H20.7404C18.8702 7.24056 17.355 8.75575 17.355 10.6259V15.1412H13.9682V6.11211ZM62.5048 15.1412H61.3763V6.11211C61.372 2.99659 58.8467 0.47127 55.7326 0.468384H17.355C14.2395 0.47127 11.7142 2.99659 11.7113 6.11211V15.1412H10.5814C4.97373 15.1484 0.4296 19.6925 0.423828 25.3002V41.1029H2.68074V49.0035H8.32446V41.1029H64.7617V49.0035H70.4054V41.1029H72.6637V25.3002C72.6565 19.6925 68.1124 15.1484 62.5048 15.1412Z" fill="#123752"/>
</svg>
