<?xml version="1.0" encoding="UTF-8"?>
<svg xmlns="http://www.w3.org/2000/svg" xmlns:xlink="http://www.w3.org/1999/xlink" width="24px" height="24px" viewBox="0 0 24 24" version="1.1">
<g id="surface1">
<path style="fill:none;stroke-width:1.5;stroke-linecap:round;stroke-linejoin:round;stroke:rgb(36.078432%,36.078432%,36.078432%);stroke-opacity:1;stroke-miterlimit:4;" d="M 2.25 19.5 L 2.25 14.25 C 2.253906 13.457031 2.570312 12.695312 3.132812 12.132812 C 3.695312 11.570312 4.453125 11.253906 5.25 11.25 L 18.75 11.25 C 19.542969 11.253906 20.304688 11.570312 20.867188 12.132812 C 21.429688 12.695312 21.746094 13.457031 21.75 14.25 L 21.75 19.5 M 18 11.25 L 4.5 11.25 L 4.5 6.375 C 4.5 5.878906 4.699219 5.402344 5.050781 5.050781 C 5.402344 4.699219 5.878906 4.5 6.375 4.5 L 17.625 4.5 C 18.121094 4.5 18.597656 4.699219 18.949219 5.050781 C 19.300781 5.402344 19.5 5.878906 19.5 6.375 L 19.5 11.25 Z M 18 11.25 "/>
<path style="fill:none;stroke-width:1.5;stroke-linecap:round;stroke-linejoin:round;stroke:rgb(36.078432%,36.078432%,36.078432%);stroke-opacity:1;stroke-miterlimit:4;" d="M 2.25 19.5 L 2.25 19.125 C 2.25 18.828125 2.371094 18.542969 2.582031 18.332031 C 2.792969 18.121094 3.078125 18 3.375 18 L 20.625 18 C 20.921875 18 21.207031 18.121094 21.417969 18.332031 C 21.628906 18.542969 21.75 18.828125 21.75 19.125 L 21.75 19.5 M 5.25 11.25 L 5.25 10.5 C 5.25 10.101562 5.410156 9.722656 5.691406 9.441406 C 5.972656 9.160156 6.351562 9 6.75 9 L 10.5 9 C 10.898438 9 11.277344 9.160156 11.558594 9.441406 C 11.839844 9.722656 12 10.101562 12 10.5 M 12 10.5 L 12 11.25 M 12 10.5 C 12 10.101562 12.160156 9.722656 12.441406 9.441406 C 12.722656 9.160156 13.101562 9 13.5 9 L 17.25 9 C 17.648438 9 18.027344 9.160156 18.308594 9.441406 C 18.589844 9.722656 18.75 10.101562 18.75 10.5 L 18.75 11.25 "/>
</g>
</svg>
