<svg width="32" height="33" viewBox="0 0 32 33" fill="none" xmlns="http://www.w3.org/2000/svg">
<path fill-rule="evenodd" clip-rule="evenodd" d="M22.0157 21.0888C22.426 21.4585 22.459 22.0908 22.0893 22.5011L22.076 22.5159C21.7063 22.9263 21.074 22.9592 20.6637 22.5895C20.2533 22.2199 20.2204 21.5876 20.5901 21.1772L20.6034 21.1624C20.9731 20.7521 21.6054 20.7192 22.0157 21.0888Z" fill="#4A6793"/>
<path fill-rule="evenodd" clip-rule="evenodd" d="M8.68269 21.0888C9.09301 21.4585 9.12596 22.0908 8.75629 22.5011L8.74296 22.5159C8.37328 22.9263 7.74098 22.9592 7.33066 22.5895C6.92034 22.2199 6.88739 21.5876 7.25706 21.1772L7.27039 21.1624C7.64007 20.7521 8.27237 20.7192 8.68269 21.0888Z" fill="#4A6793"/>
<path fill-rule="evenodd" clip-rule="evenodd" d="M23 3.16675C23 2.61446 23.4477 2.16675 24 2.16675H29.3333C29.8856 2.16675 30.3333 2.61446 30.3333 3.16675V11.1667C30.3333 11.719 29.8856 12.1667 29.3333 12.1667H27.6667V29.8334C27.6667 30.3857 27.219 30.8334 26.6667 30.8334C26.1144 30.8334 25.6667 30.3857 25.6667 29.8334V12.1667H24C23.4477 12.1667 23 11.719 23 11.1667V3.16675ZM28.3333 10.1667V4.16675H25V10.1667H28.3333Z" fill="#4A6793"/>
<path fill-rule="evenodd" clip-rule="evenodd" d="M3.66699 17.5H21.3337C21.8859 17.5 22.3337 17.0523 22.3337 16.5C22.3337 15.9477 21.8859 15.5 21.3337 15.5H3.46699C2.47291 15.5 1.66699 16.3058 1.66699 17.3V26.3667C1.66699 27.3608 2.47291 28.1667 3.46699 28.1667H21.3337C21.8859 28.1667 22.3337 27.719 22.3337 27.1667C22.3337 26.6144 21.8859 26.1667 21.3337 26.1667H3.66699V17.5Z" fill="#4A6793"/>
<path fill-rule="evenodd" clip-rule="evenodd" d="M1.66699 8.50008C1.66699 5.00228 4.50252 2.16675 8.00033 2.16675H18.667C19.2193 2.16675 19.667 2.61446 19.667 3.16675C19.667 3.71903 19.2193 4.16675 18.667 4.16675H8.00033C5.60709 4.16675 3.66699 6.10685 3.66699 8.50008V11.1667C3.66699 11.719 3.21928 12.1667 2.66699 12.1667C2.11471 12.1667 1.66699 11.719 1.66699 11.1667V8.50008ZM7.00033 11.1667C7.00033 10.6145 7.44804 10.1667 8.00033 10.1667H18.667C19.2193 10.1667 19.667 10.6145 19.667 11.1667C19.667 11.719 19.2193 12.1667 18.667 12.1667H8.00033C7.44804 12.1667 7.00033 11.719 7.00033 11.1667Z" fill="#4A6793"/>
<path fill-rule="evenodd" clip-rule="evenodd" d="M4.66699 26.1667C5.21928 26.1667 5.66699 26.6145 5.66699 27.1667V29.5001H9.00033V27.1667C9.00033 26.6145 9.44804 26.1667 10.0003 26.1667C10.5526 26.1667 11.0003 26.6145 11.0003 27.1667V29.7001C11.0003 30.6943 10.1944 31.5001 9.20033 31.5001H5.46699C4.47291 31.5001 3.66699 30.6943 3.66699 29.7001V27.1667C3.66699 26.6145 4.11471 26.1667 4.66699 26.1667Z" fill="#4A6793"/>
<path fill-rule="evenodd" clip-rule="evenodd" d="M19.333 26.1667C19.8853 26.1667 20.333 26.6145 20.333 27.1667V29.5001H21.333C21.8853 29.5001 22.333 29.9478 22.333 30.5001C22.333 31.0524 21.8853 31.5001 21.333 31.5001H20.133C19.1389 31.5001 18.333 30.6942 18.333 29.7001V27.1667C18.333 26.6145 18.7807 26.1667 19.333 26.1667Z" fill="#4A6793"/>
</svg>
