<svg width="68" height="68" viewBox="0 0 24 24" fill="none" xmlns="http://www.w3.org/2000/svg">
<g clip-path="url(#clip0_1783_11617)">
<path d="M16.45 15.563C15.6741 16.239 14.706 17.0804 12.9454 17.0804H11.8956C10.623 17.0804 9.46594 16.627 8.63794 15.804C7.82912 15.0003 7.38362 13.9001 7.38362 12.7058V11.2942C7.38362 10.0998 7.82912 8.99956 8.63794 8.19588C9.46594 7.37292 10.623 6.91956 11.8956 6.91956H12.9454C14.706 6.91956 15.6732 7.76088 16.45 8.43689C17.2557 9.13799 17.9517 9.74322 19.8058 9.74322C20.0887 9.74328 20.371 9.72111 20.6503 9.67692C20.6503 9.67154 20.6466 9.66662 20.6443 9.66124C20.5331 9.39053 20.4027 9.12781 20.2541 8.87502L19.0144 6.76725C18.4554 5.81716 17.6515 5.02819 16.6835 4.47962C15.7155 3.93105 14.6174 3.6422 13.4996 3.64209H11.0197C9.90187 3.6422 8.80378 3.93105 7.83575 4.47962C6.86771 5.02819 6.06383 5.81716 5.50489 6.76725L4.26518 8.87502C3.70632 9.82514 3.41211 10.9029 3.41211 12C3.41211 13.097 3.70632 14.1748 4.26518 15.1249L5.50489 17.2327C6.06385 18.1827 6.86775 18.9716 7.83579 19.5201C8.80383 20.0686 9.90191 20.3574 11.0197 20.3574H13.4996C14.6173 20.3574 15.7154 20.0686 16.6835 19.5201C17.6515 18.9716 18.4554 18.1827 19.0144 17.2327L20.2541 15.1249C20.4027 14.8721 20.5331 14.6094 20.6443 14.3387C20.6443 14.3333 20.6484 14.3284 20.6503 14.323C20.371 14.2788 20.0887 14.2566 19.8058 14.2567C17.9517 14.2567 17.2557 14.8619 16.45 15.563Z" fill="white"/>
<path d="M12.9462 8.19824H11.8963C9.96007 8.19824 8.6875 9.55564 8.6875 11.2934V12.705C8.6875 14.4427 9.96007 15.8001 11.8963 15.8001H12.9462C15.7679 15.8001 15.5479 12.9778 19.8066 12.9778C20.2103 12.9775 20.6132 13.0136 21.0102 13.0858C21.1394 12.3677 21.1394 11.6329 21.0102 10.9148C20.6133 10.9874 20.2103 11.0236 19.8066 11.0232C15.5465 11.0228 15.7679 8.19824 12.9462 8.19824Z" fill="white"/>
<path d="M23.4573 14.1174C22.7314 13.5967 21.8945 13.2444 21.0098 13.087C21.0098 13.0942 21.0075 13.1014 21.0062 13.1081C20.9302 13.5245 20.8111 13.9322 20.6506 14.3248C21.3816 14.4358 22.0751 14.7159 22.674 15.142C22.674 15.1482 22.6704 15.1545 22.6681 15.1612C22.3287 16.2431 21.8157 17.2649 21.1486 18.1883C20.4891 19.1031 19.6883 19.9114 18.775 20.5841C16.5643 22.2164 13.8049 22.9645 11.054 22.6775C8.3031 22.3905 5.76562 21.0897 3.95394 19.0378C2.14226 16.9859 1.19136 14.3357 1.29324 11.6224C1.39512 8.90914 2.5422 6.33486 4.50285 4.41939C5.83482 3.11309 7.48809 2.16672 9.30237 1.67203C11.1166 1.17734 13.0304 1.15112 14.858 1.59591C16.6856 2.0407 18.3652 2.94141 19.7338 4.21071C21.1024 5.48001 22.1136 7.07484 22.6695 8.84057C22.6717 8.84729 22.6736 8.85356 22.6754 8.85984C22.0761 9.28591 21.382 9.56586 20.6506 9.67652C20.811 10.0695 20.9303 10.4775 21.0066 10.8941C21.0066 10.9009 21.0066 10.9076 21.0098 10.9139C21.8947 10.7569 22.7316 10.4046 23.4573 9.88349C24.1552 9.37681 24.0201 8.80429 23.9137 8.46561C22.376 3.56239 17.7252 0 12.2264 0C5.47417 0 0 5.37271 0 11.9998C0 18.6268 5.47417 24 12.2264 24C17.7252 24 22.376 20.4376 23.9114 15.5357C24.0201 15.1971 24.1552 14.6245 23.4573 14.1174Z" fill="white"/>
<path d="M20.6504 9.67655C20.3712 9.72074 20.0888 9.74291 19.806 9.74285C17.9519 9.74285 17.2558 9.13762 16.4502 8.43652C15.6742 7.76051 14.7061 6.91919 12.9456 6.91919H11.8958C10.6232 6.91919 9.4661 7.37255 8.63811 8.1955C7.82928 8.99919 7.38379 10.0994 7.38379 11.2938V12.7054C7.38379 13.8997 7.82928 15 8.63811 15.8037C9.4661 16.6266 10.6232 17.08 11.8958 17.08H12.9456C14.7061 17.08 15.6733 16.2387 16.4502 15.5626C17.2558 14.8615 17.9519 14.2563 19.806 14.2563C20.0888 14.2563 20.3712 14.2784 20.6504 14.3226C20.8109 13.93 20.9301 13.5223 21.006 13.1059C21.006 13.0992 21.0087 13.092 21.0097 13.0848C20.6127 13.0127 20.2097 12.9765 19.806 12.9769C15.546 12.9769 15.7674 15.7992 12.9456 15.7992H11.8958C9.95952 15.7992 8.68695 14.4418 8.68695 12.704V11.2942C8.68695 9.55649 9.95952 8.19909 11.8958 8.19909H12.9456C15.7674 8.19909 15.5474 11.0214 19.806 11.0214C20.2098 11.0218 20.6127 10.9855 21.0097 10.913C21.0097 10.9067 21.0097 10.9 21.0065 10.8933C20.9301 10.4769 20.8108 10.0692 20.6504 9.67655Z" fill="#0AE9EF"/>
<path d="M20.6504 9.67655C20.3712 9.72074 20.0888 9.74291 19.806 9.74285C17.9519 9.74285 17.2558 9.13762 16.4502 8.43652C15.6742 7.76051 14.7061 6.91919 12.9456 6.91919H11.8958C10.6232 6.91919 9.4661 7.37255 8.63811 8.1955C7.82928 8.99919 7.38379 10.0994 7.38379 11.2938V12.7054C7.38379 13.8997 7.82928 15 8.63811 15.8037C9.4661 16.6266 10.6232 17.08 11.8958 17.08H12.9456C14.7061 17.08 15.6733 16.2387 16.4502 15.5626C17.2558 14.8615 17.9519 14.2563 19.806 14.2563C20.0888 14.2563 20.3712 14.2784 20.6504 14.3226C20.8109 13.93 20.9301 13.5223 21.006 13.1059C21.006 13.0992 21.0087 13.092 21.0097 13.0848C20.6127 13.0127 20.2097 12.9765 19.806 12.9769C15.546 12.9769 15.7674 15.7992 12.9456 15.7992H11.8958C9.95952 15.7992 8.68695 14.4418 8.68695 12.704V11.2942C8.68695 9.55649 9.95952 8.19909 11.8958 8.19909H12.9456C15.7674 8.19909 15.5474 11.0214 19.806 11.0214C20.2098 11.0218 20.6127 10.9855 21.0097 10.913C21.0097 10.9067 21.0097 10.9 21.0065 10.8933C20.9301 10.4769 20.8108 10.0692 20.6504 9.67655Z" fill="#123752"/>
</g>
<defs>
<clipPath id="clip0_1783_11617">
<rect width="24" height="24" fill="white"/>
</clipPath>
</defs>
</svg>
