<svg width="66" height="64" viewBox="0 0 66 64" fill="none" xmlns="http://www.w3.org/2000/svg">
<rect width="66" height="64" fill=""/>
<g clip-path="url(#clip0_1638_11115)">
<path d="M5.67651 26.3422L33.0589 2.30273L60.4412 26.3422M54.5736 21.0001V61.0659H11.5442V21.0001M27.1912 43.5826H38.9265V61.0659H27.1912V43.5826Z" stroke="#123752" stroke-width="2.5" stroke-linejoin="round"/>
<path d="M33 25.6025C30.5746 25.6025 28.6014 27.5748 28.6014 29.9991C28.6014 32.4216 30.5746 34.3939 33 34.3939C35.4254 34.3939 37.3968 32.4216 37.3968 29.9991C37.3968 27.5748 35.4254 25.6025 33 25.6025ZM33 35.9963C29.6917 35.9963 27 33.3059 27 29.9991C27 26.6905 29.6917 24 33 24C36.3083 24 39 26.6905 39 29.9991C39 33.3059 36.3083 35.9963 33 35.9963Z" fill="#123752"/>
<path d="M32.9997 35.9999C32.5564 35.9999 32.199 35.6408 32.199 35.1996V24.8057C32.199 24.3627 32.5564 24.0054 32.9997 24.0054C33.4429 24.0054 33.8004 24.3627 33.8004 24.8057V35.1996C33.8004 35.6408 33.4429 35.9999 32.9997 35.9999Z" fill="#123752"/>
<path d="M38.16 30.8066H27.8025C27.3592 30.8066 27 30.4475 27 30.0062C27 29.5632 27.3592 29.2041 27.8025 29.2041H38.16C38.6032 29.2041 38.9607 29.5632 38.9607 30.0062C38.9607 30.4475 38.6032 30.8066 38.16 30.8066Z" fill="#123752"/>
</g>
<defs>
<clipPath id="clip0_1638_11115">
<rect width="57" height="63" fill="white" transform="translate(4)"/>
</clipPath>
</defs>
</svg>
