<svg width="45" height="45" viewBox="0 0 20 21" fill="none" xmlns="http://www.w3.org/2000/svg">
<path fill-rule="evenodd" clip-rule="evenodd" d="M5.39116 10.4747C5.63524 10.2306 6.03097 10.2306 6.27504 10.4747L8.3331 12.5327L13.7245 7.14135C13.9686 6.89727 14.3643 6.89727 14.6084 7.14135C14.8525 7.38543 14.8525 7.78116 14.6084 8.02523L8.77504 13.8586C8.53097 14.1026 8.13524 14.1026 7.89116 13.8586L5.39116 11.3586C5.14708 11.1145 5.14708 10.7188 5.39116 10.4747Z" fill="white"/>
<path fill-rule="evenodd" clip-rule="evenodd" d="M10.0003 2.79163C5.74313 2.79163 2.29199 6.24276 2.29199 10.5C2.29199 14.7572 5.74313 18.2083 10.0003 18.2083C14.2575 18.2083 17.7087 14.7572 17.7087 10.5C17.7087 6.24276 14.2575 2.79163 10.0003 2.79163ZM1.04199 10.5C1.04199 5.55241 5.05277 1.54163 10.0003 1.54163C14.9479 1.54163 18.9587 5.55241 18.9587 10.5C18.9587 15.4475 14.9479 19.4583 10.0003 19.4583C5.05277 19.4583 1.04199 15.4475 1.04199 10.5Z" fill="white"/>
</svg>
