<svg width="70" height="70" viewBox="0 0 70 70" fill="none" xmlns="http://www.w3.org/2000/svg">
<path d="M67.4244 66.9228H44.4744V35.9393H67.4244V66.9228ZM21.5228 46.2672H42.1785V66.9228H21.5228V46.2672ZM3.16307 53.1519H19.2284V66.9228H3.16307V53.1519ZM3.16307 46.2672H19.2284V50.8575H3.16307V46.2672ZM8.90058 42.8241H13.4909V43.9713H8.90058V42.8241ZM29.5562 42.8241H34.1465V43.9713H29.5562V42.8241ZM44.4744 17.5796H67.4244V33.6449H44.4744V17.5796ZM68.5717 15.2837H43.3257C42.6922 15.2837 42.1785 15.7974 42.1785 16.4309V43.9713H36.4409V42.8241H37.5882C38.2217 42.8241 38.7354 42.3103 38.7354 41.6768C38.7354 41.0434 38.2217 40.5296 37.5882 40.5296H26.1132C25.4797 40.5296 24.9659 41.0434 24.9659 41.6768C24.9659 42.3103 25.4797 42.8241 26.1132 42.8241H27.2604V43.9713H15.7853V42.8241H16.9325C17.5675 42.8241 18.0812 42.3103 18.0812 41.6768C18.0812 41.0434 17.5675 40.5296 16.9325 40.5296H5.45749C4.824 40.5296 4.31028 41.0434 4.31028 41.6768C4.31028 42.3103 4.824 42.8241 5.45749 42.8241H6.6047V43.9713H2.01585C1.38092 43.9713 0.867188 44.4864 0.867188 45.1199V68.07C0.867188 68.7035 1.38092 69.2172 2.01585 69.2172H68.5717C69.2052 69.2172 69.7189 68.7035 69.7189 68.07V16.4309C69.7189 15.7974 69.2052 15.2837 68.5717 15.2837Z" fill="#123752"/>
<path d="M37.5878 62.3332H26.1128V50.8581H37.5878V62.3332ZM38.735 48.5623H24.9656C24.3321 48.5623 23.8184 49.076 23.8184 49.7109V63.4804C23.8184 64.1139 24.3321 64.6276 24.9656 64.6276H38.735C39.37 64.6276 39.8837 64.1139 39.8837 63.4804V49.7109C39.8837 49.076 39.37 48.5623 38.735 48.5623Z" fill="#123752"/>
<path d="M46.7693 25.6089C46.1358 25.6089 45.6221 26.1227 45.6221 26.7562V31.3465C45.6221 31.98 46.1358 32.4937 46.7693 32.4937C47.4028 32.4937 47.9165 31.98 47.9165 31.3465V26.7562C47.9165 26.1227 47.4028 25.6089 46.7693 25.6089Z" fill="#123752"/>
<path d="M46.7693 43.9746C47.4028 43.9746 47.9165 43.4609 47.9165 42.8274V38.2371C47.9165 37.6036 47.4028 37.0898 46.7693 37.0898C46.1358 37.0898 45.6221 37.6036 45.6221 38.2371V42.8274C45.6221 43.4609 46.1358 43.9746 46.7693 43.9746Z" fill="#123752"/>
<path d="M16.3238 7.2518H26.7223L36.2868 18.7268H6.76076L16.3238 7.2518ZM19.2286 2.6615H23.8189V4.95593H19.2286V2.6615ZM4.31048 21.0227H38.7356C39.3705 21.0227 39.8843 20.5104 39.8857 19.8769C39.8857 19.6071 39.7919 19.3459 39.6187 19.1395L28.1437 5.36864C27.9244 5.10745 27.6011 4.95593 27.2606 4.95737H26.1133V1.51428C26.1133 0.880787 25.5996 0.367065 24.9661 0.367065H18.0799C17.4465 0.367065 16.9327 0.880787 16.9327 1.51428V4.95737H15.7855C15.445 4.95593 15.1217 5.10745 14.9038 5.36864L3.42734 19.1395C3.02185 19.6259 3.08678 20.3488 3.57309 20.7557C3.77944 20.9275 4.04063 21.0227 4.31048 21.0227Z" fill="#123752"/>
</svg>
