<svg width="67" height="65" viewBox="0 0 67 65" fill="none" xmlns="http://www.w3.org/2000/svg">
<path d="M64.9991 64.855H47.8442V2.88232H16.4509V64.855H1.48518C0.837255 64.855 0.310547 64.3283 0.310547 63.6804C0.310547 63.031 0.837255 62.5043 1.48518 62.5043H14.1002V0.531616H50.1949V62.5043H64.9991C65.6484 62.5043 66.1751 63.031 66.1751 63.6804C66.1751 64.3283 65.6484 64.855 64.9991 64.855Z" fill="#123752"/>
<path d="M41.6377 33.3449C41.6377 32.2698 42.5093 31.3982 43.5844 31.3982C44.6594 31.3982 45.531 32.2698 45.531 33.3449C45.531 34.4199 44.6594 35.2915 43.5844 35.2915C42.5093 35.2915 41.6377 34.4199 41.6377 33.3449Z" fill="#123752"/>
<path d="M22.13 24.3821H42.6543V8.72514H22.13V24.3821ZM45.005 26.7314H19.7793V6.37299H45.005V26.7314Z" fill="#123752"/>
<path d="M22.13 57.2328H42.6543V41.5759H22.13V57.2328ZM45.005 59.5835H19.7793V39.2252H45.005V59.5835Z" fill="#123752"/>
</svg>
