<svg width="32" height="33" viewBox="0 0 32 33" fill="none" xmlns="http://www.w3.org/2000/svg">
<path d="M16 4.5L3 7.5V9.5L16 6.5L29 9.5V7.5L16 4.5ZM10 10.5C6.773 10.5 3.625 11.813 3.625 11.813L3 12.093V27.5H14.281C14.629 28.098 15.261 28.5 16 28.5C16.738 28.5 17.371 28.098 17.719 27.5H29V12.094L28.375 11.813C28.375 11.813 25.227 10.5 22 10.5C19.082 10.5 16.52 11.48 16 11.688C15.48 11.48 12.918 10.5 10 10.5ZM10 12.5C11.934 12.5 14 13.125 15 13.469V24.594C13.887 24.227 12.059 23.719 10 23.719C7.898 23.719 6.187 24.203 5 24.594V13.469C5.77 13.19 7.8 12.5 10 12.5ZM22 12.5C24.2 12.5 26.23 13.191 27 13.469V24.594C25.812 24.204 24.102 23.719 22 23.719C19.941 23.719 18.113 24.227 17 24.594V13.469C18 13.125 20.066 12.5 22 12.5Z" fill="#4A6793"/>
</svg>
