<svg width="120" height="130" viewBox="0 0 115 114" fill="none" xmlns="http://www.w3.org/2000/svg">
<g clip-path="url(#clip0_914_5704)">
<path d="M0.5 57C0.5 25.5198 26.0198 0 57.5 0C88.9802 0 114.5 25.5198 114.5 57C114.5 88.4802 88.9802 114 57.5 114C26.0198 114 0.5 88.4802 0.5 57Z" fill="#E5EFFF"/>
<path d="M51.5605 95.9536H-29.1572C-29.5151 95.9536 -29.8037 96.2436 -29.8037 96.6C-29.8037 96.9579 -29.5151 97.248 -29.1572 97.248H51.5605C51.9184 97.248 52.207 96.9579 52.207 96.6C52.207 96.2436 51.9184 95.9536 51.5605 95.9536Z" fill="#123752"/>
<path d="M114.041 95.9536H78.4907C78.1328 95.9536 77.8428 96.2436 77.8428 96.6C77.8428 96.9579 78.1328 97.248 78.4907 97.248H114.041C114.399 97.248 114.688 96.9579 114.688 96.6C114.688 96.2436 114.399 95.9536 114.041 95.9536Z" fill="#123752"/>
<path d="M34.042 53.6657C34.1661 53.6657 34.2902 53.7018 34.3984 53.7725L51.5446 65.0917C51.6499 65.161 51.7769 65.1855 51.9039 65.1595C52.0294 65.135 52.1362 65.0628 52.2069 64.956C52.2762 64.8507 52.3007 64.7237 52.2747 64.5982C52.2488 64.4726 52.1766 64.3644 52.0713 64.2951L34.3479 52.5935C34.244 52.5257 34.1386 52.5156 34.0679 52.5171C34.0506 52.5185 34.0333 52.5185 34.016 52.5171C33.9453 52.5142 33.8399 52.5257 33.736 52.5935L16.0126 64.2951C15.9073 64.3644 15.8352 64.4726 15.8092 64.5982C15.7832 64.7237 15.8077 64.8507 15.877 64.956C15.9477 65.0628 16.0545 65.135 16.18 65.1595C16.307 65.1855 16.434 65.1624 16.5394 65.0917L33.6855 53.7725C33.7938 53.7018 33.9179 53.6657 34.042 53.6657ZM51.8029 66.464C51.4594 66.464 51.1232 66.3644 50.8317 66.1725L34.042 55.0871L17.2522 66.1725C16.8583 66.4323 16.3864 66.5232 15.9217 66.4279C15.4571 66.3327 15.0574 66.0629 14.7976 65.6689C14.2594 64.8536 14.4845 63.7525 15.2998 63.2157L33.0232 51.5141C33.3262 51.315 33.6812 51.2169 34.042 51.2241C34.4056 51.2154 34.7577 51.315 35.0607 51.5141L52.7841 63.2157C53.5995 63.7525 53.8246 64.8536 53.2863 65.6689C53.0266 66.0629 52.6269 66.3327 52.1622 66.4279C52.0424 66.4525 51.9212 66.464 51.8029 66.464Z" fill="#123752"/>
<path d="M34.1099 60.3054C32.1517 60.3054 30.5586 61.8985 30.5586 63.8567C30.5586 65.8135 32.1517 67.4066 34.1099 67.4066C36.0681 67.4066 37.6598 65.8135 37.6598 63.8567C37.6598 61.8985 36.0681 60.3054 34.1099 60.3054ZM34.1099 68.701C31.4388 68.701 29.2656 66.5278 29.2656 63.8567C29.2656 61.1842 31.4388 59.011 34.1099 59.011C36.781 59.011 38.9542 61.1842 38.9542 63.8567C38.9542 66.5278 36.781 68.701 34.1099 68.701Z" fill="#123752"/>
<path d="M34.1094 68.7037C33.7515 68.7037 33.4629 68.4136 33.4629 68.0572V59.6616C33.4629 59.3037 33.7515 59.0151 34.1094 59.0151C34.4672 59.0151 34.7559 59.3037 34.7559 59.6616V68.0572C34.7559 68.4136 34.4672 68.7037 34.1094 68.7037Z" fill="#123752"/>
<path d="M38.276 64.509H29.9135C29.5557 64.509 29.2656 64.219 29.2656 63.8625C29.2656 63.5047 29.5557 63.2146 29.9135 63.2146H38.276C38.6338 63.2146 38.9224 63.5047 38.9224 63.8625C38.9224 64.219 38.6338 64.509 38.276 64.509Z" fill="#123752"/>
<path d="M107.574 19.9971C107.698 19.9971 107.822 20.0331 107.93 20.1039L131.818 35.8748C132.241 36.1533 132.812 36.0364 133.092 35.6136C133.372 35.1894 133.255 34.6179 132.831 34.3394L108.139 18.0374C107.981 17.9321 107.793 17.883 107.6 17.8888C107.582 17.8902 107.565 17.8902 107.548 17.8888C107.353 17.883 107.167 17.9321 107.008 18.0374L82.3161 34.3394C82.1126 34.4736 81.9726 34.68 81.9236 34.9224C81.8731 35.1648 81.9207 35.4102 82.0549 35.6136C82.1891 35.8171 82.3969 35.9571 82.6379 36.0061C82.8803 36.0552 83.1256 36.009 83.3291 35.8748L107.217 20.1039C107.325 20.0331 107.449 19.9971 107.574 19.9971ZM132.322 37.3193C131.903 37.3193 131.48 37.201 131.105 36.9542L107.574 21.4185L84.042 36.9542C83.5499 37.2789 82.9597 37.3929 82.3796 37.2731C81.798 37.1548 81.3002 36.8186 80.9755 36.3265C80.6494 35.8344 80.5368 35.2442 80.6552 34.6627C80.7749 34.0826 81.1112 33.5833 81.6032 33.2586L106.295 16.958C106.675 16.7069 107.12 16.5828 107.574 16.5958C108.035 16.5828 108.473 16.7069 108.852 16.958L133.544 33.2586C134.563 33.931 134.844 35.3077 134.172 36.3265C133.747 36.9701 133.04 37.3193 132.322 37.3193Z" fill="#123752"/>
<path d="M129.852 55.8627H85.1196C84.7617 55.8627 84.4717 55.5726 84.4717 55.2162V35.4639C84.4717 35.1074 84.7617 34.8174 85.1196 34.8174C85.476 34.8174 85.7661 35.1074 85.7661 35.4639V54.5682H129.206V35.3484C129.206 34.9906 129.494 34.7005 129.852 34.7005C130.21 34.7005 130.499 34.9906 130.499 35.3484V55.2162C130.499 55.5726 130.21 55.8627 129.852 55.8627Z" fill="#123752"/>
<path d="M129.852 91.6165H85.1196C84.7617 91.6165 84.4717 91.3264 84.4717 90.97V64.2579C84.4717 63.9 84.7617 63.61 85.1196 63.61C85.476 63.61 85.7661 63.9 85.7661 64.2579V90.3221H129.206V64.1006C129.206 63.7427 129.494 63.4527 129.852 63.4527C130.21 63.4527 130.499 63.7427 130.499 64.1006V90.97C130.499 91.3264 130.21 91.6165 129.852 91.6165Z" fill="#123752"/>
<path d="M93.145 47.8885H99.3876V41.6459H93.145V47.8885ZM100.034 49.1815H92.4971C92.1406 49.1815 91.8506 48.8914 91.8506 48.535V40.998C91.8506 40.6415 92.1406 40.3515 92.4971 40.3515H100.034C100.392 40.3515 100.681 40.6415 100.681 40.998V48.535C100.681 48.8914 100.392 49.1815 100.034 49.1815Z" fill="#123752"/>
<path d="M85.1428 63.4481H129.912L129.515 55.8607H85.4617L85.1428 63.4481ZM130.845 64.7425H84.2091C83.997 64.7425 83.7993 64.6372 83.6781 64.464C83.5569 64.2894 83.5295 64.0672 83.6031 63.8681L84.4068 54.9876C84.5021 54.7351 84.7431 54.5677 85.0129 54.5677H129.962C130.232 54.5677 130.473 54.7351 130.568 54.9876L131.451 63.8681C131.525 64.0672 131.498 64.2894 131.376 64.464C131.257 64.6372 131.057 64.7425 130.845 64.7425Z" fill="#123752"/>
<path d="M102.71 91.6117C102.352 91.6117 102.063 91.3217 102.063 90.9652V73.4251H93.1987V90.9652C93.1987 91.3217 92.9087 91.6117 92.5522 91.6117C92.1943 91.6117 91.9043 91.3217 91.9043 90.9652V72.7902C91.9043 72.4337 92.2044 72.1321 92.5623 72.1321H102.691C103.058 72.1321 103.356 72.4323 103.356 72.8003V90.9652C103.356 91.3217 103.068 91.6117 102.71 91.6117Z" fill="#123752"/>
<path d="M110.39 78.4338H122.241V69.881H110.39V78.4338ZM122.888 79.7282H109.743C109.385 79.7282 109.097 79.4382 109.097 79.0803V69.233C109.097 68.8766 109.385 68.5865 109.743 68.5865H122.888C123.246 68.5865 123.536 68.8766 123.536 69.233V79.0803C123.536 79.4382 123.246 79.7282 122.888 79.7282Z" fill="#123752"/>
<path d="M122.807 71.8468H109.743C109.387 71.8468 109.097 71.5568 109.097 71.2004C109.097 70.8425 109.387 70.5524 109.743 70.5524H122.807C123.165 70.5524 123.453 70.8425 123.453 71.2004C123.453 71.5568 123.165 71.8468 122.807 71.8468Z" fill="#123752"/>
<path d="M100.034 43.4476H92.4971C92.1406 43.4476 91.8506 43.1576 91.8506 42.8011C91.8506 42.4432 92.1406 42.1532 92.4971 42.1532H100.034C100.392 42.1532 100.681 42.4432 100.681 42.8011C100.681 43.1576 100.392 43.4476 100.034 43.4476Z" fill="#123752"/>
<path d="M-13.9385 65.427C-13.9875 65.427 -14.0323 65.44 -14.0727 65.4659L-28.1798 74.7793C-28.2924 74.8543 -28.3241 75.0116 -28.2505 75.1242C-28.2015 75.1978 -28.1308 75.2223 -28.0932 75.2295C-28.0543 75.2367 -27.9807 75.2425 -27.9056 75.1949L-14.2574 66.1846C-14.0424 66.0417 -13.761 66.0417 -13.5445 66.1846L0.102285 75.1949C0.17588 75.2425 0.250921 75.2367 0.288439 75.2295C0.327402 75.2223 0.398108 75.1978 0.447172 75.1242C0.520767 75.0116 0.489019 74.8543 0.376463 74.7793L-13.7321 65.4659C-13.7841 65.4313 -13.8403 65.4255 -13.8764 65.427C-13.8937 65.4284 -13.9096 65.4284 -13.9269 65.427H-13.9385ZM-28.0384 76.5283C-28.1423 76.5283 -28.2476 76.5182 -28.3515 76.4965C-28.757 76.4143 -29.1034 76.179 -29.3299 75.837C-29.7989 75.1271 -29.6027 74.1689 -28.8927 73.6999L-14.7855 64.3865C-14.5229 64.2134 -14.2141 64.1253 -13.901 64.134C-13.5849 64.1253 -13.2804 64.2134 -13.0178 64.3865L1.08932 73.6999C1.7993 74.1689 1.99411 75.1271 1.52657 75.837C1.30001 76.179 0.953678 76.4143 0.548183 76.4965C0.144133 76.5802 -0.267132 76.5008 -0.610575 76.2743L-13.901 67.4992L-27.1928 76.2743C-27.4482 76.4417 -27.7397 76.5283 -28.0384 76.5283Z" fill="#123752"/>
<path d="M48.1645 91.4347H19.8232C19.4668 91.4347 19.1768 91.1447 19.1768 90.7882V63.9203C19.1768 63.5625 19.4668 63.2724 19.8232 63.2724C20.1811 63.2724 20.4712 63.5625 20.4712 63.9203V90.1403H47.518V63.9203C47.518 63.5625 47.8066 63.2724 48.1645 63.2724C48.5224 63.2724 48.811 63.5625 48.811 63.9203V90.7882C48.811 91.1447 48.5224 91.4347 48.1645 91.4347Z" fill="#123752"/>
<path d="M69.7497 64.2115H52.4275C52.071 64.2115 51.781 63.9215 51.781 63.565C51.781 63.2071 52.071 62.9171 52.4275 62.9171H68.8781L63.4191 44.9195H4.79999L-0.657583 62.9171H15.656C16.0138 62.9171 16.3039 63.2071 16.3039 63.565C16.3039 63.9215 16.0138 64.2115 15.656 64.2115H-1.52918C-1.73409 64.2115 -1.92746 64.1148 -2.05011 63.9503C-2.17133 63.7858 -2.20885 63.5722 -2.14824 63.3774L3.70183 44.084C3.78409 43.8113 4.03518 43.6251 4.3209 43.6251H63.8996C64.1839 43.6251 64.435 43.8113 64.5187 44.084L70.3687 63.3774C70.4279 63.5722 70.3918 63.7858 70.2692 63.9503C70.148 64.1148 69.9546 64.2115 69.7497 64.2115Z" fill="#123752"/>
<path d="M66.8813 91.4332H1.02538C0.668954 91.4332 0.378906 91.1431 0.378906 90.7867V63.5652C0.378906 63.2088 0.668954 62.9188 1.02538 62.9188C1.38326 62.9188 1.67331 63.2088 1.67331 63.5652V90.1388H66.2377L66.3517 63.5624C66.3532 63.2059 66.6432 62.9188 66.9996 62.9188C67.3575 62.9202 67.6476 63.2117 67.6461 63.5681L67.5278 90.7896C67.5264 91.146 67.2377 91.4332 66.8813 91.4332Z" fill="#123752"/>
<path d="M39.119 91.4361C38.7611 91.4361 38.4725 91.146 38.4725 90.7896V74.313H29.5127V90.4779C29.5127 90.8358 29.2241 91.1258 28.8662 91.1258C28.5098 91.1258 28.2197 90.8358 28.2197 90.4779V73.6665C28.2197 73.3086 28.5098 73.02 28.8662 73.02H39.119C39.4769 73.02 39.7655 73.3086 39.7655 73.6665V90.7896C39.7655 91.146 39.4769 91.4361 39.119 91.4361Z" fill="#123752"/>
<path d="M7.32425 80.1594H13.5726V70.1952H7.32425V80.1594ZM14.2205 81.4538H6.67773C6.31985 81.4538 6.03125 81.1637 6.03125 80.8073V69.5487C6.03125 69.1908 6.31985 68.9022 6.67773 68.9022H14.2205C14.5769 68.9022 14.867 69.1908 14.867 69.5487V80.8073C14.867 81.1637 14.5769 81.4538 14.2205 81.4538Z" fill="#123752"/>
<path d="M54.3412 80.1594H60.5896V70.1952H54.3412V80.1594ZM61.2361 81.4538H53.6934C53.3369 81.4538 53.0469 81.1637 53.0469 80.8073V69.5487C53.0469 69.1908 53.3369 68.9022 53.6934 68.9022H61.2361C61.5925 68.9022 61.8826 69.1908 61.8826 69.5487V80.8073C61.8826 81.1637 61.5925 81.4538 61.2361 81.4538Z" fill="#123752"/>
<path d="M68.3691 90.1368H81.6307V77.8205H68.3691V90.1368ZM82.2786 91.4312H67.7227C67.3648 91.4312 67.0762 91.1411 67.0762 90.7833V77.174C67.0762 76.8161 67.3648 76.5261 67.7227 76.5261H82.2786C82.6365 76.5261 82.9251 76.8161 82.9251 77.174V90.7833C82.9251 91.1411 82.6365 91.4312 82.2786 91.4312Z" fill="#123752"/>
<path d="M69.5644 91.4298C69.2066 91.4298 68.918 91.1397 68.918 90.7833V77.1725C68.918 76.8147 69.2066 76.5261 69.5644 76.5261C69.9223 76.5261 70.2109 76.8147 70.2109 77.1725V90.7833C70.2109 91.1397 69.9223 91.4298 69.5644 91.4298Z" fill="#123752"/>
<path d="M71.7129 91.4298C71.355 91.4298 71.0664 91.1397 71.0664 90.7833V77.1725C71.0664 76.8147 71.355 76.5261 71.7129 76.5261C72.0708 76.5261 72.3594 76.8147 72.3594 77.1725V90.7833C72.3594 91.1397 72.0708 91.4298 71.7129 91.4298Z" fill="#123752"/>
<path d="M73.8603 91.4298C73.5025 91.4298 73.2139 91.1397 73.2139 90.7833V77.1725C73.2139 76.8147 73.5025 76.5261 73.8603 76.5261C74.2182 76.5261 74.5068 76.8147 74.5068 77.1725V90.7833C74.5068 91.1397 74.2182 91.4298 73.8603 91.4298Z" fill="#123752"/>
<path d="M76.0088 91.4298C75.6509 91.4298 75.3623 91.1397 75.3623 90.7833V77.1725C75.3623 76.8147 75.6509 76.5261 76.0088 76.5261C76.3667 76.5261 76.6553 76.8147 76.6553 77.1725V90.7833C76.6553 91.1397 76.3667 91.4298 76.0088 91.4298Z" fill="#123752"/>
<path d="M78.1572 91.4298C77.7993 91.4298 77.5107 91.1397 77.5107 90.7833V77.1725C77.5107 76.8147 77.7993 76.5261 78.1572 76.5261C78.5151 76.5261 78.8037 76.8147 78.8037 77.1725V90.7833C78.8037 91.1397 78.5151 91.4298 78.1572 91.4298Z" fill="#123752"/>
<path d="M80.3047 91.4298C79.9468 91.4298 79.6582 91.1397 79.6582 90.7833V77.1725C79.6582 76.8147 79.9468 76.5261 80.3047 76.5261C80.6626 76.5261 80.9512 76.8147 80.9512 77.1725V90.7833C80.9512 91.1397 80.6626 91.4298 80.3047 91.4298Z" fill="#123752"/>
</g>
<defs>
<clipPath id="clip0_914_5704">
<path d="M0.5 57C0.5 25.5198 26.0198 0 57.5 0C88.9802 0 114.5 25.5198 114.5 57C114.5 88.4802 88.9802 114 57.5 114C26.0198 114 0.5 88.4802 0.5 57Z" fill="white"/>
</clipPath>
</defs>
</svg>
