<svg width="115" height="82" viewBox="0 0 115 82" fill="none" xmlns="http://www.w3.org/2000/svg">
<path d="M51.5605 79.9536H-29.1572C-29.5151 79.9536 -29.8037 80.2436 -29.8037 80.6C-29.8037 80.9579 -29.5151 81.248 -29.1572 81.248H51.5605C51.9184 81.248 52.207 80.9579 52.207 80.6C52.207 80.2436 51.9184 79.9536 51.5605 79.9536Z" fill="#123752"/>
<path d="M114.041 79.9536H78.4907C78.1328 79.9536 77.8428 80.2436 77.8428 80.6C77.8428 80.9579 78.1328 81.248 78.4907 81.248H114.041C114.399 81.248 114.688 80.9579 114.688 80.6C114.688 80.2436 114.399 79.9536 114.041 79.9536Z" fill="#123752"/>
<path d="M34.042 37.6657C34.1661 37.6657 34.2902 37.7018 34.3984 37.7725L51.5446 49.0917C51.6499 49.161 51.7769 49.1855 51.9039 49.1595C52.0294 49.135 52.1362 49.0628 52.2069 48.956C52.2762 48.8507 52.3007 48.7237 52.2747 48.5982C52.2488 48.4726 52.1766 48.3644 52.0713 48.2951L34.3479 36.5935C34.244 36.5257 34.1386 36.5156 34.0679 36.5171C34.0506 36.5185 34.0333 36.5185 34.016 36.5171C33.9453 36.5142 33.8399 36.5257 33.736 36.5935L16.0126 48.2951C15.9073 48.3644 15.8352 48.4726 15.8092 48.5982C15.7832 48.7237 15.8077 48.8507 15.877 48.956C15.9477 49.0628 16.0545 49.135 16.18 49.1595C16.307 49.1855 16.434 49.1624 16.5394 49.0917L33.6855 37.7725C33.7938 37.7018 33.9179 37.6657 34.042 37.6657ZM51.8029 50.464C51.4594 50.464 51.1232 50.3644 50.8317 50.1725L34.042 39.0871L17.2522 50.1725C16.8583 50.4323 16.3864 50.5232 15.9217 50.4279C15.4571 50.3327 15.0574 50.0629 14.7976 49.6689C14.2594 48.8536 14.4845 47.7525 15.2998 47.2157L33.0232 35.5141C33.3262 35.315 33.6812 35.2169 34.042 35.2241C34.4056 35.2154 34.7577 35.315 35.0607 35.5141L52.7841 47.2157C53.5995 47.7525 53.8246 48.8536 53.2863 49.6689C53.0266 50.0629 52.6269 50.3327 52.1622 50.4279C52.0424 50.4525 51.9212 50.464 51.8029 50.464Z" fill="#123752"/>
<path d="M34.1099 44.3054C32.1517 44.3054 30.5586 45.8985 30.5586 47.8567C30.5586 49.8135 32.1517 51.4066 34.1099 51.4066C36.0681 51.4066 37.6598 49.8135 37.6598 47.8567C37.6598 45.8985 36.0681 44.3054 34.1099 44.3054ZM34.1099 52.701C31.4388 52.701 29.2656 50.5278 29.2656 47.8567C29.2656 45.1842 31.4388 43.011 34.1099 43.011C36.781 43.011 38.9542 45.1842 38.9542 47.8567C38.9542 50.5278 36.781 52.701 34.1099 52.701Z" fill="#123752"/>
<path d="M34.1094 52.7037C33.7515 52.7037 33.4629 52.4136 33.4629 52.0572V43.6616C33.4629 43.3037 33.7515 43.0151 34.1094 43.0151C34.4672 43.0151 34.7559 43.3037 34.7559 43.6616V52.0572C34.7559 52.4136 34.4672 52.7037 34.1094 52.7037Z" fill="#123752"/>
<path d="M38.276 48.509H29.9135C29.5557 48.509 29.2656 48.219 29.2656 47.8625C29.2656 47.5047 29.5557 47.2146 29.9135 47.2146H38.276C38.6338 47.2146 38.9224 47.5047 38.9224 47.8625C38.9224 48.219 38.6338 48.509 38.276 48.509Z" fill="#123752"/>
<path d="M107.574 3.99707C107.698 3.99707 107.822 4.03315 107.93 4.10386L131.818 19.8748C132.241 20.1533 132.812 20.0364 133.092 19.6136C133.372 19.1894 133.255 18.6179 132.831 18.3394L108.139 2.03743C107.981 1.93209 107.793 1.88302 107.6 1.8888C107.582 1.89024 107.565 1.89024 107.548 1.8888C107.353 1.88302 107.167 1.93209 107.008 2.03743L82.3161 18.3394C82.1126 18.4736 81.9726 18.68 81.9236 18.9224C81.8731 19.1648 81.9207 19.4102 82.0549 19.6136C82.1891 19.8171 82.3969 19.9571 82.6379 20.0061C82.8803 20.0552 83.1256 20.009 83.3291 19.8748L107.217 4.10386C107.325 4.03315 107.449 3.99707 107.574 3.99707ZM132.322 21.3193C131.903 21.3193 131.48 21.201 131.105 20.9542L107.574 5.41847L84.042 20.9542C83.5499 21.2789 82.9597 21.3929 82.3796 21.2731C81.798 21.1548 81.3002 20.8186 80.9755 20.3265C80.6494 19.8344 80.5368 19.2442 80.6552 18.6627C80.7749 18.0826 81.1112 17.5833 81.6032 17.2586L106.295 0.958035C106.675 0.706947 107.12 0.582846 107.574 0.595834C108.035 0.582846 108.473 0.706947 108.852 0.958035L133.544 17.2586C134.563 17.931 134.844 19.3077 134.172 20.3265C133.747 20.9701 133.04 21.3193 132.322 21.3193Z" fill="#123752"/>
<path d="M129.852 39.8627H85.1196C84.7617 39.8627 84.4717 39.5726 84.4717 39.2162V19.4639C84.4717 19.1074 84.7617 18.8174 85.1196 18.8174C85.476 18.8174 85.7661 19.1074 85.7661 19.4639V38.5682H129.206V19.3484C129.206 18.9906 129.494 18.7005 129.852 18.7005C130.21 18.7005 130.499 18.9906 130.499 19.3484V39.2162C130.499 39.5726 130.21 39.8627 129.852 39.8627Z" fill="#123752"/>
<path d="M129.852 75.6165H85.1196C84.7617 75.6165 84.4717 75.3264 84.4717 74.97V48.2579C84.4717 47.9 84.7617 47.61 85.1196 47.61C85.476 47.61 85.7661 47.9 85.7661 48.2579V74.3221H129.206V48.1006C129.206 47.7427 129.494 47.4527 129.852 47.4527C130.21 47.4527 130.499 47.7427 130.499 48.1006V74.97C130.499 75.3264 130.21 75.6165 129.852 75.6165Z" fill="#123752"/>
<path d="M93.145 31.8885H99.3876V25.6459H93.145V31.8885ZM100.034 33.1815H92.4971C92.1406 33.1815 91.8506 32.8914 91.8506 32.535V24.998C91.8506 24.6415 92.1406 24.3515 92.4971 24.3515H100.034C100.392 24.3515 100.681 24.6415 100.681 24.998V32.535C100.681 32.8914 100.392 33.1815 100.034 33.1815Z" fill="#123752"/>
<path d="M115.917 31.8885H122.16V25.6459H115.917V31.8885ZM122.807 33.1815H115.271C114.914 33.1815 114.624 32.8914 114.624 32.535V24.998C114.624 24.6415 114.914 24.3515 115.271 24.3515H122.807C123.164 24.3515 123.454 24.6415 123.454 24.998V32.535C123.454 32.8914 123.164 33.1815 122.807 33.1815Z" fill="#123752"/>
<path d="M85.1428 47.4481H129.912L129.515 39.8607H85.4617L85.1428 47.4481ZM130.845 48.7425H84.2091C83.997 48.7425 83.7993 48.6372 83.6781 48.464C83.5569 48.2894 83.5295 48.0672 83.6031 47.8681L84.4068 38.9876C84.5021 38.7351 84.7431 38.5677 85.0129 38.5677H129.962C130.232 38.5677 130.473 38.7351 130.568 38.9876L131.451 47.8681C131.525 48.0672 131.498 48.2894 131.376 48.464C131.257 48.6372 131.057 48.7425 130.845 48.7425Z" fill="#123752"/>
<path d="M102.71 75.6117C102.352 75.6117 102.063 75.3217 102.063 74.9652V57.4251H93.1987V74.9652C93.1987 75.3217 92.9087 75.6117 92.5522 75.6117C92.1943 75.6117 91.9043 75.3217 91.9043 74.9652V56.7902C91.9043 56.4337 92.2044 56.1321 92.5623 56.1321H102.691C103.058 56.1321 103.356 56.4323 103.356 56.8003V74.9652C103.356 75.3217 103.068 75.6117 102.71 75.6117Z" fill="#123752"/>
<path d="M110.39 62.4338H122.241V53.881H110.39V62.4338ZM122.888 63.7282H109.743C109.385 63.7282 109.097 63.4382 109.097 63.0803V53.233C109.097 52.8766 109.385 52.5865 109.743 52.5865H122.888C123.246 52.5865 123.536 52.8766 123.536 53.233V63.0803C123.536 63.4382 123.246 63.7282 122.888 63.7282Z" fill="#123752"/>
<path d="M122.807 55.8468H109.743C109.387 55.8468 109.097 55.5568 109.097 55.2004C109.097 54.8425 109.387 54.5524 109.743 54.5524H122.807C123.165 54.5524 123.453 54.8425 123.453 55.2004C123.453 55.5568 123.165 55.8468 122.807 55.8468Z" fill="#123752"/>
<path d="M100.034 27.4476H92.4971C92.1406 27.4476 91.8506 27.1576 91.8506 26.8011C91.8506 26.4432 92.1406 26.1532 92.4971 26.1532H100.034C100.392 26.1532 100.681 26.4432 100.681 26.8011C100.681 27.1576 100.392 27.4476 100.034 27.4476Z" fill="#123752"/>
<path d="M122.807 27.4476H115.271C114.914 27.4476 114.624 27.1576 114.624 26.8011C114.624 26.4432 114.914 26.1532 115.271 26.1532H122.807C123.165 26.1532 123.454 26.4432 123.454 26.8011C123.454 27.1576 123.165 27.4476 122.807 27.4476Z" fill="#123752"/>
<path d="M-13.9385 49.427C-13.9875 49.427 -14.0323 49.44 -14.0727 49.4659L-28.1798 58.7793C-28.2924 58.8543 -28.3241 59.0116 -28.2505 59.1242C-28.2015 59.1978 -28.1308 59.2223 -28.0932 59.2295C-28.0543 59.2367 -27.9807 59.2425 -27.9056 59.1949L-14.2574 50.1846C-14.0424 50.0417 -13.761 50.0417 -13.5445 50.1846L0.102285 59.1949C0.17588 59.2425 0.250921 59.2367 0.288439 59.2295C0.327402 59.2223 0.398108 59.1978 0.447172 59.1242C0.520767 59.0116 0.489019 58.8543 0.376463 58.7793L-13.7321 49.4659C-13.7841 49.4313 -13.8403 49.4255 -13.8764 49.427C-13.8937 49.4284 -13.9096 49.4284 -13.9269 49.427H-13.9385ZM-28.0384 60.5283C-28.1423 60.5283 -28.2476 60.5182 -28.3515 60.4965C-28.757 60.4143 -29.1034 60.179 -29.3299 59.837C-29.7989 59.1271 -29.6027 58.1689 -28.8927 57.6999L-14.7855 48.3865C-14.5229 48.2134 -14.2141 48.1253 -13.901 48.134C-13.5849 48.1253 -13.2804 48.2134 -13.0178 48.3865L1.08932 57.6999C1.7993 58.1689 1.99411 59.1271 1.52657 59.837C1.30001 60.179 0.953678 60.4143 0.548183 60.4965C0.144133 60.5802 -0.267132 60.5008 -0.610575 60.2743L-13.901 51.4992L-27.1928 60.2743C-27.4482 60.4417 -27.7397 60.5283 -28.0384 60.5283Z" fill="#123752"/>
<path d="M48.1645 75.4347H19.8232C19.4668 75.4347 19.1768 75.1447 19.1768 74.7882V47.9203C19.1768 47.5625 19.4668 47.2724 19.8232 47.2724C20.1811 47.2724 20.4712 47.5625 20.4712 47.9203V74.1403H47.518V47.9203C47.518 47.5625 47.8066 47.2724 48.1645 47.2724C48.5224 47.2724 48.811 47.5625 48.811 47.9203V74.7882C48.811 75.1447 48.5224 75.4347 48.1645 75.4347Z" fill="#123752"/>
<path d="M69.7497 48.2115H52.4275C52.071 48.2115 51.781 47.9215 51.781 47.565C51.781 47.2071 52.071 46.9171 52.4275 46.9171H68.8781L63.4191 28.9195H4.79999L-0.657583 46.9171H15.656C16.0138 46.9171 16.3039 47.2071 16.3039 47.565C16.3039 47.9215 16.0138 48.2115 15.656 48.2115H-1.52918C-1.73409 48.2115 -1.92746 48.1148 -2.05011 47.9503C-2.17133 47.7858 -2.20885 47.5722 -2.14824 47.3774L3.70183 28.084C3.78409 27.8113 4.03518 27.6251 4.3209 27.6251H63.8996C64.1839 27.6251 64.435 27.8113 64.5187 28.084L70.3687 47.3774C70.4279 47.5722 70.3918 47.7858 70.2692 47.9503C70.148 48.1148 69.9546 48.2115 69.7497 48.2115Z" fill="#123752"/>
<path d="M66.8813 75.4332H1.02538C0.668954 75.4332 0.378906 75.1431 0.378906 74.7867V47.5652C0.378906 47.2088 0.668954 46.9188 1.02538 46.9188C1.38326 46.9188 1.67331 47.2088 1.67331 47.5652V74.1388H66.2377L66.3517 47.5624C66.3532 47.2059 66.6432 46.9188 66.9996 46.9188C67.3575 46.9202 67.6476 47.2117 67.6461 47.5681L67.5278 74.7896C67.5264 75.146 67.2377 75.4332 66.8813 75.4332Z" fill="#123752"/>
<path d="M39.119 75.4361C38.7611 75.4361 38.4725 75.146 38.4725 74.7896V58.313H29.5127V74.4779C29.5127 74.8358 29.2241 75.1258 28.8662 75.1258C28.5098 75.1258 28.2197 74.8358 28.2197 74.4779V57.6665C28.2197 57.3086 28.5098 57.02 28.8662 57.02H39.119C39.4769 57.02 39.7655 57.3086 39.7655 57.6665V74.7896C39.7655 75.146 39.4769 75.4361 39.119 75.4361Z" fill="#123752"/>
<path d="M7.32425 64.1594H13.5726V54.1952H7.32425V64.1594ZM14.2205 65.4538H6.67773C6.31985 65.4538 6.03125 65.1637 6.03125 64.8073V53.5487C6.03125 53.1908 6.31985 52.9022 6.67773 52.9022H14.2205C14.5769 52.9022 14.867 53.1908 14.867 53.5487V64.8073C14.867 65.1637 14.5769 65.4538 14.2205 65.4538Z" fill="#123752"/>
<path d="M54.3412 64.1594H60.5896V54.1952H54.3412V64.1594ZM61.2361 65.4538H53.6934C53.3369 65.4538 53.0469 65.1637 53.0469 64.8073V53.5487C53.0469 53.1908 53.3369 52.9022 53.6934 52.9022H61.2361C61.5925 52.9022 61.8826 53.1908 61.8826 53.5487V64.8073C61.8826 65.1637 61.5925 65.4538 61.2361 65.4538Z" fill="#123752"/>
<path d="M68.3691 74.1368H81.6307V61.8205H68.3691V74.1368ZM82.2786 75.4312H67.7227C67.3648 75.4312 67.0762 75.1411 67.0762 74.7833V61.174C67.0762 60.8161 67.3648 60.5261 67.7227 60.5261H82.2786C82.6365 60.5261 82.9251 60.8161 82.9251 61.174V74.7833C82.9251 75.1411 82.6365 75.4312 82.2786 75.4312Z" fill="#123752"/>
<path d="M69.5644 75.4298C69.2066 75.4298 68.918 75.1397 68.918 74.7833V61.1725C68.918 60.8147 69.2066 60.5261 69.5644 60.5261C69.9223 60.5261 70.2109 60.8147 70.2109 61.1725V74.7833C70.2109 75.1397 69.9223 75.4298 69.5644 75.4298Z" fill="#123752"/>
<path d="M71.7129 75.4298C71.355 75.4298 71.0664 75.1397 71.0664 74.7833V61.1725C71.0664 60.8147 71.355 60.5261 71.7129 60.5261C72.0708 60.5261 72.3594 60.8147 72.3594 61.1725V74.7833C72.3594 75.1397 72.0708 75.4298 71.7129 75.4298Z" fill="#123752"/>
<path d="M73.8603 75.4298C73.5025 75.4298 73.2139 75.1397 73.2139 74.7833V61.1725C73.2139 60.8147 73.5025 60.5261 73.8603 60.5261C74.2182 60.5261 74.5068 60.8147 74.5068 61.1725V74.7833C74.5068 75.1397 74.2182 75.4298 73.8603 75.4298Z" fill="#123752"/>
<path d="M76.0088 75.4298C75.6509 75.4298 75.3623 75.1397 75.3623 74.7833V61.1725C75.3623 60.8147 75.6509 60.5261 76.0088 60.5261C76.3667 60.5261 76.6553 60.8147 76.6553 61.1725V74.7833C76.6553 75.1397 76.3667 75.4298 76.0088 75.4298Z" fill="#123752"/>
<path d="M78.1572 75.4298C77.7993 75.4298 77.5107 75.1397 77.5107 74.7833V61.1725C77.5107 60.8147 77.7993 60.5261 78.1572 60.5261C78.5151 60.5261 78.8037 60.8147 78.8037 61.1725V74.7833C78.8037 75.1397 78.5151 75.4298 78.1572 75.4298Z" fill="#123752"/>
<path d="M80.3047 75.4298C79.9468 75.4298 79.6582 75.1397 79.6582 74.7833V61.1725C79.6582 60.8147 79.9468 60.5261 80.3047 60.5261C80.6626 60.5261 80.9512 60.8147 80.9512 61.1725V74.7833C80.9512 75.1397 80.6626 75.4298 80.3047 75.4298Z" fill="#123752"/>
</svg>
