<svg width="60" height="60" viewBox="0 0 25 24" fill="none" xmlns="http://www.w3.org/2000/svg">
<path d="M18.0714 18H20.9C21.2314 18 21.5 17.7314 21.5 17.4V11C21.5 8.79086 19.7091 7 17.5 7H7.5C5.29086 7 3.5 8.79086 3.5 11V17.4C3.5 17.7314 3.76863 18 4.1 18H6.92857" stroke="#4A6793" stroke-width="1.5"/>
<path d="M8.5 7V3.6C8.5 3.26863 8.76863 3 9.1 3H15.9C16.2314 3 16.5 3.26863 16.5 3.6V7" stroke="#4A6793" stroke-width="1.5"/>
<path d="M6.59794 20.3151L6.92868 18L7.42651 14.5151C7.46874 14.2196 7.72189 14 8.02048 14H16.9797C17.2783 14 17.5315 14.2196 17.5737 14.5151L18.0715 18L18.4023 20.3151C18.4539 20.6766 18.1734 21 17.8083 21H7.19191C6.82678 21 6.5463 20.6766 6.59794 20.3151Z" stroke="#4A6793" stroke-width="1.5"/>
<path d="M17.5 10.01L17.51 9.99889" stroke="#4A6793" stroke-width="1.5" stroke-linecap="round" stroke-linejoin="round"/>
</svg>
