<svg width="50" height="50" viewBox="0 0 40 40" fill="none" xmlns="http://www.w3.org/2000/svg">
  <circle cx="20" cy="20" r="20" fill="#ADCAF9"/>
  <g transform="scale(1.5) translate(-6.5 -6.5)">
    <path d="M14.8308 7.69231H25.1693C29.1078 7.69231 32.3078 10.8923 32.3078 14.8308V25.1692C32.3078 27.0625 31.5557 28.8782 30.217 30.2169C28.8782 31.5556 27.0625 32.3077 25.1693 32.3077H14.8308C10.8924 32.3077 7.69238 29.1077 7.69238 25.1692V14.8308C7.69238 12.9375 8.44447 11.1218 9.78319 9.78311C11.1219 8.44439 12.9376 7.69231 14.8308 7.69231ZM14.5847 10.1538C13.4096 10.1538 12.2826 10.6207 11.4517 11.4516C10.6207 12.2825 10.1539 13.4095 10.1539 14.5846V25.4154C10.1539 27.8646 12.1355 29.8462 14.5847 29.8462H25.4155C26.5906 29.8462 27.7176 29.3793 28.5485 28.5484C29.3794 27.7175 29.8462 26.5905 29.8462 25.4154V14.5846C29.8462 12.1354 27.8647 10.1538 25.4155 10.1538H14.5847ZM26.4616 12C26.8696 12 27.261 12.1621 27.5495 12.4506C27.838 12.7391 28.0001 13.1304 28.0001 13.5385C28.0001 13.9465 27.838 14.3378 27.5495 14.6263C27.261 14.9148 26.8696 15.0769 26.4616 15.0769C26.0536 15.0769 25.6623 14.9148 25.3738 14.6263C25.0852 14.3378 24.9232 13.9465 24.9232 13.5385C24.9232 13.1304 25.0852 12.7391 25.3738 12.4506C25.6623 12.1621 26.0536 12 26.4616 12ZM20.0001 13.8462C21.6322 13.8462 23.1974 14.4945 24.3515 15.6486C25.5056 16.8026 26.1539 18.3679 26.1539 20C26.1539 21.6321 25.5056 23.1974 24.3515 24.3514C23.1974 25.5055 21.6322 26.1538 20.0001 26.1538C18.368 26.1538 16.8027 25.5055 15.6486 24.3514C14.4946 23.1974 13.8462 21.6321 13.8462 20C13.8462 18.3679 14.4946 16.8026 15.6486 15.6486C16.8027 14.4945 18.368 13.8462 20.0001 13.8462ZM20.0001 16.3077C19.0208 16.3077 18.0817 16.6967 17.3892 17.3891C16.6968 18.0816 16.3078 19.0207 16.3078 20C16.3078 20.9793 16.6968 21.9184 17.3892 22.6109C18.0817 23.3033 19.0208 23.6923 20.0001 23.6923C20.9793 23.6923 21.9185 23.3033 22.6109 22.6109C23.3034 21.9184 23.6924 20.9793 23.6924 20C23.6924 19.0207 23.3034 18.0816 22.6109 17.3891C21.9185 16.6967 20.9793 16.3077 20.0001 16.3077Z" fill="#0E0E0F"/>
  </g>
</svg>
