<svg width="114" height="114" viewBox="0 0 114 114" fill="none" xmlns="http://www.w3.org/2000/svg">
<path d="M0 57C0 25.5198 25.5198 0 57 0C88.4802 0 114 25.5198 114 57C114 88.4802 88.4802 114 57 114C25.5198 114 0 88.4802 0 57Z" fill=""/>
<path d="M57.2095 64.1689V62.6047L60.5144 59.2998C60.7667 59.0307 61.0022 58.7616 61.2208 58.4925C61.4395 58.2065 61.5488 57.8954 61.5488 57.559C61.5488 57.2731 61.4395 57.0292 61.2208 56.8274C61.0022 56.6255 60.7247 56.5246 60.3883 56.5246C60.0519 56.5246 59.7492 56.634 59.4801 56.8526C59.2278 57.0713 59.0596 57.4245 58.9755 57.9122L57.1338 57.1554C57.3188 56.3985 57.7056 55.8098 58.2943 55.3893C58.8998 54.952 59.5894 54.7334 60.3631 54.7334C60.8004 54.7334 61.2124 54.8007 61.5993 54.9352C62.0029 55.053 62.3477 55.238 62.6336 55.4903C62.9364 55.7257 63.1719 56.0117 63.34 56.348C63.5251 56.6844 63.6176 57.0544 63.6176 57.4581C63.6176 57.7608 63.5587 58.0552 63.441 58.3411C63.3232 58.6102 63.1803 58.8625 63.0121 59.098C62.8607 59.3334 62.6925 59.5521 62.5075 59.7539C62.3225 59.9557 62.1543 60.1323 62.0029 60.2837L59.9089 62.3777H63.668V64.1689H57.2095Z" fill="#123752"/>
<path d="M37.0874 60.638H39.7364V62.3031H39.8878C40.2746 61.6976 40.8128 61.2015 41.5024 60.8146C42.192 60.4278 42.9236 60.2344 43.6973 60.2344C44.6224 60.2344 45.4129 60.453 46.0688 60.8903C46.7416 61.3108 47.2293 61.8658 47.5321 62.5554C47.9525 61.8995 48.516 61.3528 49.2224 60.9155C49.9288 60.4614 50.7782 60.2344 51.7705 60.2344C52.5273 60.2344 53.1833 60.3605 53.7383 60.6128C54.2934 60.8483 54.7475 61.1847 55.1007 61.622C55.4707 62.0592 55.7482 62.5891 55.9332 63.2114C56.1182 63.8168 56.2107 64.498 56.2107 65.2549V73.0001H53.4103V65.7342C53.4103 64.6578 53.2001 63.9094 52.7796 63.4889C52.376 63.0516 51.7789 62.8329 50.9884 62.8329C50.5343 62.8329 50.1222 62.9338 49.7522 63.1357C49.399 63.3375 49.0962 63.615 48.844 63.9682C48.5917 64.3046 48.3983 64.6998 48.2637 65.154C48.1291 65.6081 48.0619 66.0874 48.0619 66.592V73.0001H45.2615V65.7342C45.2615 64.6578 45.0428 63.9094 44.6055 63.4889C44.1851 63.0516 43.5712 62.8329 42.7639 62.8329C42.3266 62.8329 41.9313 62.9338 41.5781 63.1357C41.2249 63.3375 40.9222 63.615 40.6699 63.9682C40.4176 64.3046 40.2242 64.6998 40.0896 65.154C39.9551 65.6081 39.8878 66.0874 39.8878 66.592V73.0001H37.0874V60.638Z" fill="#123752"/>
<path d="M34 45H68C69.6569 45 71 46.3431 71 48V82C71 83.6569 69.6569 85 68 85H34C32.3431 85 31 83.6569 31 82V48C31 46.3431 32.3431 45 34 45Z" stroke="#123752" stroke-width="2"/>
<path d="M29.4697 34.4697C29.1768 34.7626 29.1768 35.2374 29.4697 35.5303L34.2426 40.3033C34.5355 40.5962 35.0104 40.5962 35.3033 40.3033C35.5962 40.0104 35.5962 39.5355 35.3033 39.2426L31.0607 35L35.3033 30.7574C35.5962 30.4645 35.5962 29.9896 35.3033 29.6967C35.0104 29.4038 34.5355 29.4038 34.2426 29.6967L29.4697 34.4697ZM71.0303 35.5303C71.3232 35.2374 71.3232 34.7626 71.0303 34.4697L66.2574 29.6967C65.9645 29.4038 65.4896 29.4038 65.1967 29.6967C64.9038 29.9896 64.9038 30.4645 65.1967 30.7574L69.4393 35L65.1967 39.2426C64.9038 39.5355 64.9038 40.0104 65.1967 40.3033C65.4896 40.5962 65.9645 40.5962 66.2574 40.3033L71.0303 35.5303ZM30 35V35.75H70.5V35V34.25H30V35Z" fill="#123752"/>
<path d="M80.4697 85.0303C80.7626 85.3232 81.2374 85.3232 81.5303 85.0303L86.3033 80.2574C86.5962 79.9645 86.5962 79.4896 86.3033 79.1967C86.0104 78.9038 85.5355 78.9038 85.2426 79.1967L81 83.4393L76.7574 79.1967C76.4645 78.9038 75.9896 78.9038 75.6967 79.1967C75.4038 79.4896 75.4038 79.9645 75.6967 80.2574L80.4697 85.0303ZM81.5303 43.4697C81.2374 43.1768 80.7626 43.1768 80.4697 43.4697L75.6967 48.2426C75.4038 48.5355 75.4038 49.0104 75.6967 49.3033C75.9896 49.5962 76.4645 49.5962 76.7574 49.3033L81 45.0607L85.2426 49.3033C85.5355 49.5962 86.0104 49.5962 86.3033 49.3033C86.5962 49.0104 86.5962 48.5355 86.3033 48.2426L81.5303 43.4697ZM81 84.5L81.75 84.5L81.75 44L81 44L80.25 44L80.25 84.5L81 84.5Z" fill="#123752"/>
</svg>
