<svg width="114" height="114" viewBox="0 0 114 114" fill="none" xmlns="http://www.w3.org/2000/svg">
<path d="M0 57C0 25.5198 25.5198 0 57 0C88.4802 0 114 25.5198 114 57C114 88.4802 88.4802 114 57 114C25.5198 114 0 88.4802 0 57Z" fill=""/>
<g clip-path="url(#clip0_1640_11249)">
<path d="M30.4548 67.3943H30.5933L32.3591 54.1794L27.431 49.2628C26.8954 48.7259 26.471 48.0887 26.1818 47.3877C25.8927 46.6867 25.7446 45.9355 25.7459 45.1772V40.5606C25.7446 39.8023 25.8927 39.0512 26.1818 38.3501C26.471 37.6491 26.8954 37.0119 27.431 36.475L35.3022 28.5923C35.8391 28.0567 36.4763 27.6323 37.1773 27.3431C37.8783 27.054 38.6295 26.9059 39.3878 26.9072H44.0044C44.7627 26.9059 45.5138 27.054 46.2149 27.3431C46.9159 27.6323 47.5531 28.0567 48.09 28.5923L62.3089 42.8112C63.3919 43.8908 64.0021 45.3561 64.0055 46.8853V51.5018C63.9952 53.033 63.3863 54.4994 62.3089 55.5875L61.1548 56.7416L62.6321 67.3943H66.233V50.0823C66.233 49.3244 66.3822 48.574 66.6722 47.8739C66.9623 47.1738 67.3873 46.5376 67.9232 46.0018C68.459 45.4659 69.0952 45.0409 69.7953 44.7508C70.4954 44.4608 71.2458 44.3116 72.0037 44.3116H76.6202C77.522 44.3196 78.4093 44.5388 79.211 44.9517C80.0127 45.3646 80.7065 45.9597 81.2367 46.6891L88.1615 56.2684C88.8966 57.2483 89.3009 58.4367 89.3157 59.6616V77.7815C89.3157 78.6998 88.9509 79.5804 88.3016 80.2298C87.6522 80.8791 86.7716 81.2439 85.8533 81.2439H79.9787C79.6976 82.8488 78.8595 84.3032 77.6119 85.3512C76.3643 86.3993 74.7872 86.9738 73.1578 86.9738C71.5284 86.9738 69.9512 86.3993 68.7037 85.3512C67.4561 84.3032 66.618 82.8488 66.3369 81.2439H54.5878C54.3537 82.6107 53.7148 83.8757 52.7536 84.8752C51.7924 85.8747 50.5533 86.5626 49.1967 86.8499C47.8401 87.1371 46.4285 87.0104 45.1447 86.4863C43.8609 85.9621 42.764 85.0646 41.9962 83.9099C41.2283 85.0646 40.1314 85.9621 38.8476 86.4863C37.5638 87.0104 36.1522 87.1371 34.7956 86.8499C33.439 86.5626 32.1999 85.8747 31.2387 84.8752C30.2775 83.8757 29.6386 82.6107 29.4046 81.2439H28.1465C27.2283 81.2439 26.3476 80.8791 25.6983 80.2298C25.0489 79.5804 24.6841 78.6998 24.6841 77.7815V73.1649C24.6841 71.6345 25.2921 70.1667 26.3743 69.0845C27.4565 68.0023 28.9243 67.3943 30.4548 67.3943ZM61.6972 46.8853C61.6903 45.9697 61.321 45.0941 60.6701 44.4501L46.4627 30.2311C45.814 29.5816 44.9339 29.2163 44.0159 29.2155H39.3994C38.4814 29.2163 37.6013 29.5816 36.9526 30.2311L29.0814 38.1023C28.4319 38.751 28.0666 39.6311 28.0658 40.5491V45.1656C28.0666 46.0836 28.4319 46.9637 29.0814 47.6124L34.3789 52.9099L43.2657 61.7967C43.9097 62.4477 44.7853 62.817 45.7009 62.8239H50.3175C50.7728 62.822 51.2233 62.7303 51.6432 62.554C52.063 62.3778 52.444 62.1204 52.7642 61.7967L59.112 55.449L60.6239 53.9371C60.9476 53.6168 61.2049 53.2358 61.3812 52.816C61.5574 52.3961 61.6492 51.9456 61.6511 51.4903L61.6972 46.8853ZM59.1466 58.7729L54.4493 63.4702C53.3612 64.5476 51.8948 65.1565 50.3636 65.1668H45.7471C44.986 65.1682 44.2322 65.019 43.529 64.7278C42.8259 64.4366 42.1872 64.0092 41.6499 63.4702L34.4135 56.2338L32.9247 67.3943H60.3007L59.1466 58.7729ZM68.5413 50.0823V67.3943H87.0074V61.6236H78.9285C77.398 61.6236 75.9302 61.0156 74.848 59.9334C73.7658 58.8512 73.1578 57.3834 73.1578 55.8529V46.6199H72.0037C71.0854 46.6199 70.2047 46.9846 69.5554 47.634C68.906 48.2833 68.5413 49.164 68.5413 50.0823ZM79.3786 48.051C79.0621 47.614 78.6479 47.2571 78.169 47.0086C77.69 46.7601 77.1597 46.627 76.6202 46.6199H75.4661V55.8529C75.4661 56.7712 75.8308 57.6519 76.4802 58.3012C77.1295 58.9505 78.0102 59.3153 78.9285 59.3153H87.0074C86.945 58.7082 86.7263 58.1277 86.3726 57.6303L79.3786 48.051ZM73.1578 84.7063C74.0709 84.7063 74.9634 84.4355 75.7226 83.9283C76.4818 83.421 77.0735 82.7 77.4229 81.8564C77.7723 81.0129 77.8638 80.0846 77.6856 79.1891C77.5075 78.2936 77.0678 77.471 76.4222 76.8254C75.7765 76.1797 74.954 75.7401 74.0584 75.5619C73.1629 75.3838 72.2347 75.4752 71.3911 75.8246C70.5476 76.174 69.8266 76.7658 69.3193 77.5249C68.812 78.2841 68.5413 79.1767 68.5413 80.0898C68.5413 81.3141 69.0276 82.4884 69.8934 83.3541C70.7592 84.2199 71.9334 84.7063 73.1578 84.7063ZM47.7668 84.7063C48.6799 84.7063 49.5725 84.4355 50.3316 83.9283C51.0908 83.421 51.6825 82.7 52.032 81.8564C52.3814 81.0129 52.4728 80.0846 52.2947 79.1891C52.1165 78.2936 51.6768 77.471 51.0312 76.8254C50.3856 76.1797 49.563 75.7401 48.6675 75.5619C47.772 75.3838 46.8437 75.4752 46.0002 75.8246C45.1566 76.174 44.4356 76.7658 43.9283 77.5249C43.421 78.2841 43.1503 79.1767 43.1503 80.0898C43.1503 81.3141 43.6367 82.4884 44.5024 83.3541C45.3682 84.2199 46.5424 84.7063 47.7668 84.7063ZM36.2255 84.7063C37.1385 84.7063 38.0311 84.4355 38.7903 83.9283C39.5495 83.421 40.1412 82.7 40.4906 81.8564C40.84 81.0129 40.9314 80.0846 40.7533 79.1891C40.5752 78.2936 40.1355 77.471 39.4899 76.8254C38.8442 76.1797 38.0216 75.7401 37.1261 75.5619C36.2306 75.3838 35.3024 75.4752 34.4588 75.8246C33.6152 76.174 32.8942 76.7658 32.387 77.5249C31.8797 78.2841 31.6089 79.1767 31.6089 80.0898C31.6089 81.3141 32.0953 82.4884 32.9611 83.3541C33.8269 84.2199 35.0011 84.7063 36.2255 84.7063ZM26.9924 77.7815C26.9924 78.0876 27.114 78.3811 27.3304 78.5976C27.5469 78.814 27.8405 78.9356 28.1465 78.9356H29.393C29.3999 78.9091 29.3999 78.8813 29.393 78.8548C29.4569 78.5103 29.5457 78.1709 29.6585 77.8392L29.7277 77.6545C29.8481 77.3277 29.9947 77.0112 30.1663 76.7081L30.2702 76.6274C30.454 76.315 30.6624 76.0179 30.8934 75.7387C31.1267 75.4614 31.3814 75.2028 31.6551 74.9654L31.7474 74.8846C32.0148 74.6576 32.3005 74.453 32.6015 74.2729L32.7631 74.0998C33.0656 73.9207 33.3821 73.7663 33.7095 73.6381H33.8711C34.2089 73.5139 34.5563 73.4174 34.9098 73.3496H35.0483C35.4354 73.2582 35.829 73.1964 36.2255 73.1649C36.5025 73.1649 36.7679 73.1649 37.0334 73.1649H37.2873C37.4701 73.1884 37.6512 73.2231 37.8297 73.2688L38.0952 73.3381C38.2754 73.3853 38.4527 73.4431 38.6261 73.5112L38.8454 73.592C39.0762 73.6843 39.307 73.7997 39.5378 73.9151H39.6186C39.814 74.0274 40.0028 74.1507 40.1842 74.2845L40.3804 74.423C40.5263 74.5292 40.6651 74.6448 40.7959 74.7692L40.9921 74.9423C41.1306 75.0693 41.2575 75.2078 41.3845 75.3463L41.523 75.4963C41.6845 75.6925 41.8346 75.9002 41.9846 76.108C42.1347 75.9002 42.2847 75.6925 42.4463 75.4963L42.6078 75.4732C42.7348 75.3347 42.8618 75.1962 43.0003 75.0693L43.1503 74.9077C43.2811 74.7833 43.4199 74.6677 43.5658 74.5615L43.762 74.423C43.9433 74.2892 44.1321 74.1659 44.3275 74.0536H44.4083C44.6391 73.9382 44.87 73.8228 45.1008 73.7305L45.3201 73.6497C45.4935 73.5816 45.6708 73.5238 45.851 73.4766L46.1164 73.4073C46.2949 73.3616 46.4761 73.3269 46.6589 73.3034H46.9128C47.1782 73.3034 47.4437 73.3034 47.7207 73.3034C48.1074 73.3095 48.4932 73.3442 48.8748 73.4073H49.0133C49.3668 73.4751 49.7142 73.5716 50.052 73.6959H50.2136C50.541 73.824 50.8575 73.9784 51.16 74.1575L51.31 74.2498C51.611 74.4299 51.8967 74.6345 52.1641 74.8615L52.2564 74.9423C52.5302 75.1797 52.7849 75.4383 53.0181 75.7156C53.2492 75.9948 53.4576 76.292 53.6414 76.6043L53.7222 76.7312C53.8916 77.0394 54.0382 77.3595 54.1607 77.6892L54.23 77.8738C54.3428 78.2055 54.4315 78.545 54.4954 78.8895C54.4886 78.916 54.4886 78.9437 54.4954 78.9702H66.3253C66.3303 78.9474 66.3303 78.9238 66.3253 78.901C66.3893 78.5489 66.478 78.2018 66.5908 77.8623L66.66 77.6892C66.7848 77.3605 66.9313 77.0404 67.0986 76.7312L67.1794 76.6158C67.3603 76.298 67.5689 75.9968 67.8026 75.7156C68.0428 75.4408 68.3011 75.1825 68.5759 74.9423L68.6567 74.8615C68.9301 74.6371 69.2194 74.4326 69.5223 74.2498L69.6954 74.0998C69.9979 73.9207 70.3144 73.7663 70.6418 73.6381H70.8034C71.1407 73.5124 71.4882 73.4158 71.8421 73.3496H71.9806C72.3677 73.2582 72.7613 73.1964 73.1578 73.1649C73.5445 73.171 73.9303 73.2057 74.3119 73.2688H74.4504C74.8043 73.335 75.1518 73.4316 75.4891 73.5574H75.6507C75.9781 73.6855 76.2946 73.8399 76.5971 74.019L76.7471 74.1113C77.05 74.2941 77.3393 74.4986 77.6127 74.723L77.6935 74.8038C77.9683 75.044 78.2267 75.3023 78.4668 75.5771C78.7006 75.8583 78.9091 76.1595 79.09 76.4773L79.1708 76.5927C79.3381 76.9019 79.4846 77.222 79.6094 77.5507L79.6786 77.7238C79.7915 78.0633 79.8802 78.4104 79.9441 78.7625C79.9391 78.7853 79.9391 78.8089 79.9441 78.8317H85.8533C86.1594 78.8317 86.4529 78.7102 86.6694 78.4937C86.8858 78.2773 87.0074 77.9837 87.0074 77.6776V69.7025H30.4548C29.5365 69.7025 28.6559 70.0673 28.0065 70.7167C27.3572 71.366 26.9924 72.2467 26.9924 73.1649V77.7815Z" fill="#123752"/>
<path d="M74.3121 62.7778H75.4662C75.7723 62.7778 76.0659 62.8994 76.2823 63.1159C76.4988 63.3323 76.6204 63.6259 76.6204 63.932C76.6204 64.2381 76.4988 64.5316 76.2823 64.7481C76.0659 64.9645 75.7723 65.0861 75.4662 65.0861H74.3121C74.006 65.0861 73.7124 64.9645 73.496 64.7481C73.2796 64.5316 73.158 64.2381 73.158 63.932C73.158 63.6259 73.2796 63.3323 73.496 63.1159C73.7124 62.8994 74.006 62.7778 74.3121 62.7778Z" fill="#123752"/>
</g>
<defs>
<clipPath id="clip0_1640_11249">
<rect width="64" height="64" fill="white" transform="matrix(-1 0 0 1 89 25)"/>
</clipPath>
</defs>
</svg>
