<svg width="24" height="24" viewBox="0 0 24 24" fill="none" xmlns="http://www.w3.org/2000/svg">
<path fill-rule="evenodd" clip-rule="evenodd" d="M2.25 11C2.25 10.5858 2.58579 10.25 3 10.25L11 10.25C11.4142 10.25 11.75 10.5858 11.75 11L11.75 16C11.75 16.4142 11.4142 16.75 11 16.75C10.5858 16.75 10.25 16.4142 10.25 16L10.25 11.75L3 11.75C2.58579 11.75 2.25 11.4142 2.25 11Z" fill="#4A6793"/>
<path fill-rule="evenodd" clip-rule="evenodd" d="M15 10.75C14.5858 10.75 14.25 10.4142 14.25 10V8C14.25 7.58579 14.5858 7.25 15 7.25H21C21.4142 7.25 21.75 7.58579 21.75 8C21.75 8.41421 21.4142 8.75 21 8.75H15.75V10C15.75 10.4142 15.4142 10.75 15 10.75Z" fill="#4A6793"/>
<path fill-rule="evenodd" clip-rule="evenodd" d="M15 21.75C14.5858 21.75 14.25 21.4142 14.25 21V18C14.25 17.5858 14.5858 17.25 15 17.25C15.4142 17.25 15.75 17.5858 15.75 18V21C15.75 21.4142 15.4142 21.75 15 21.75Z" fill="#4A6793"/>
<path fill-rule="evenodd" clip-rule="evenodd" d="M11 21.75C10.5858 21.75 10.25 21.4142 10.25 21V19C10.25 18.5858 10.5858 18.25 11 18.25C11.4142 18.25 11.75 18.5858 11.75 19V21C11.75 21.4142 11.4142 21.75 11 21.75Z" fill="#4A6793"/>
<path fill-rule="evenodd" clip-rule="evenodd" d="M11 6.75C10.5858 6.75 10.25 6.41421 10.25 6V3C10.25 2.58579 10.5858 2.25 11 2.25C11.4142 2.25 11.75 2.58579 11.75 3V6C11.75 6.41421 11.4142 6.75 11 6.75Z" fill="#4A6793"/>
<path fill-rule="evenodd" clip-rule="evenodd" d="M14.4697 15.5303C14.329 15.3897 14.25 15.1989 14.25 15V13C14.25 12.5858 14.5858 12.25 15 12.25C15.4142 12.25 15.75 12.5858 15.75 13V14.25H21C21.4142 14.25 21.75 14.5858 21.75 15C21.75 15.4142 21.4142 15.75 21 15.75H15C14.8011 15.75 14.6103 15.671 14.4697 15.5303Z" fill="#4A6793"/>
<path fill-rule="evenodd" clip-rule="evenodd" d="M11 8.25C11.4142 8.25 11.75 8.58579 11.75 9V11C11.75 11.4142 11.4142 11.75 11 11.75C10.5858 11.75 10.25 11.4142 10.25 11V9C10.25 8.58579 10.5858 8.25 11 8.25Z" fill="#4A6793"/>
<path fill-rule="evenodd" clip-rule="evenodd" d="M20.25 20.25V3.75H3.75V20.25H20.25ZM21.75 20.4C21.75 21.1456 21.1456 21.75 20.4 21.75H3.6C2.85441 21.75 2.25 21.1456 2.25 20.4V3.6C2.25 2.85441 2.85442 2.25 3.6 2.25H20.4C21.1456 2.25 21.75 2.85442 21.75 3.6V20.4Z" fill="#4A6793"/>
</svg>
