<svg width="57" height="66" viewBox="0 0 57 66" fill="none" xmlns="http://www.w3.org/2000/svg">
<path d="M29.7276 43.3538V30.8224L38.2026 26.3678L36.976 24.0358L29.7276 27.8454V19.8106H27.0926V36.4358L19.8442 32.6262L18.6206 34.9582L27.0926 39.4143V43.3538L26.8531 43.5399C24.2758 45.5501 21.0506 46.6583 17.7764 46.6583C9.6261 46.6583 2.99534 40.029 2.99534 31.8787C2.99534 25.6477 6.93772 20.053 12.8022 17.9563L13.6089 17.6677L13.6738 16.8149C13.9523 13.1106 15.6104 9.67038 18.3406 7.12919C21.0838 4.57357 24.6597 3.1666 28.4116 3.1666C32.1606 3.1666 35.7364 4.57357 38.4811 7.12919C41.2113 9.67038 42.8694 13.1106 43.1493 16.8149L43.2128 17.6691L44.018 17.9563C49.884 20.0516 53.8249 25.6477 53.8249 31.8787C53.8249 40.029 47.1956 46.6583 39.0453 46.6583C35.7711 46.6583 32.5459 45.5501 29.9672 43.5399L29.7276 43.3538ZM39.0453 49.2933C48.6473 49.2933 56.4599 41.4821 56.4599 31.8787C56.4599 24.9521 52.3588 18.685 46.0109 15.9144L45.6963 15.7759L45.6458 15.4339C45.083 11.5348 43.1738 7.89977 40.2762 5.19984C37.0453 2.18967 32.8301 0.531616 28.4116 0.531616C23.9915 0.531616 19.7764 2.18967 16.5455 5.19984C13.6478 7.89833 11.7401 11.5333 11.1759 15.4339L11.1254 15.7759L10.8108 15.9144C4.46291 18.685 0.360352 24.9521 0.360352 31.8787C0.360352 41.4821 8.17296 49.2933 17.7764 49.2933C20.7057 49.2933 23.6077 48.5473 26.1734 47.1345L27.0926 46.628V65.4366H29.7276V46.628L30.6468 47.1345C33.2126 48.5473 36.1145 49.2933 39.0453 49.2933Z" fill="#123752"/>
</svg>
