<svg width="24" height="24" viewBox="0 0 24 24" fill="none" xmlns="http://www.w3.org/2000/svg">
<path fill-rule="evenodd" clip-rule="evenodd" d="M20.25 20.25V3.75H3.75V20.25H20.25ZM21.75 20.4C21.75 21.1456 21.1456 21.75 20.4 21.75H3.6C2.85441 21.75 2.25 21.1456 2.25 20.4V3.6C2.25 2.85441 2.85442 2.25 3.6 2.25H20.4C21.1456 2.25 21.75 2.85442 21.75 3.6V20.4Z" fill="#4A6793"/>
<path fill-rule="evenodd" clip-rule="evenodd" d="M9.75 9.29236V14.7076L14.4883 12L9.75 9.29236ZM8.25 9.03388C8.25 7.99732 9.3698 7.34747 10.2698 7.86175L15.4604 10.8278C16.3674 11.3461 16.3674 12.6538 15.4604 13.1721L10.2698 16.1382C9.3698 16.6525 8.25 16.0026 8.25 14.9661V9.03388Z" fill="#4A6793"/>
</svg>
