<svg width="81" height="59" viewBox="0 0 81 59" fill="none" xmlns="http://www.w3.org/2000/svg">
<path fill-rule="evenodd" clip-rule="evenodd" d="M2.93555 2.23132H77.9692V55.9282H2.93555V2.23132ZM5.33099 4.62677V53.5328H75.5738V4.62677H5.33099Z" fill="#123752"/>
<path fill-rule="evenodd" clip-rule="evenodd" d="M0.0947266 0.139221H80.8125V58.018H0.0947266V0.139221ZM1.53776 1.58226V56.575H79.3695V1.58226H1.53776Z" fill="#123752"/>
<path fill-rule="evenodd" clip-rule="evenodd" d="M39.2559 3.42943V54.7294H41.6514V3.42943H39.2559Z" fill="#123752"/>
<path fill-rule="evenodd" clip-rule="evenodd" d="M72.4946 24.1151C71.8331 24.1151 71.2969 24.6513 71.2969 25.3128V32.8454C71.2969 33.5069 71.8331 34.0432 72.4946 34.0432C73.1561 34.0432 73.6923 33.5069 73.6923 32.8454V25.3128C73.6923 24.6513 73.1561 24.1151 72.4946 24.1151Z" fill="#123752"/>
<path fill-rule="evenodd" clip-rule="evenodd" d="M9.06198 24.1151C8.4005 24.1151 7.86426 24.6513 7.86426 25.3128V32.8454C7.86426 33.5069 8.4005 34.0432 9.06198 34.0432C9.72346 34.0432 10.2597 33.5069 10.2597 32.8454V25.3128C10.2597 24.6513 9.72346 24.1151 9.06198 24.1151Z" fill="#123752"/>
</svg>
