<svg width="45" height="45" viewBox="0 0 40 40" fill="none" xmlns="http://www.w3.org/2000/svg">
  <g clip-path="url(#clip0_951_8972)">
    <circle cx="20" cy="20" r="20" fill="#ADCAF9"/>
    <g transform="scale(1.5) translate(-6.5 -6.5)">
      <path fill-rule="evenodd" clip-rule="evenodd" d="M20 10C21.0688 10 22.165 10.0275 23.2275 10.0725L24.4825 10.1325L25.6838 10.2038L26.8088 10.28L27.8362 10.36C28.9513 10.4453 30.0006 10.9212 30.7994 11.7038C31.5983 12.4864 32.0955 13.5257 32.2038 14.6388L32.2537 15.17L32.3475 16.3075C32.435 17.4862 32.5 18.7712 32.5 20C32.5 21.2288 32.435 22.5138 32.3475 23.6925L32.2537 24.83C32.2375 25.0125 32.2213 25.1887 32.2038 25.3612C32.0955 26.4745 31.598 27.5139 30.7989 28.2966C29.9998 29.0792 28.9503 29.5549 27.835 29.64L26.81 29.7188L25.685 29.7962L24.4825 29.8675L23.2275 29.9275C22.1523 29.9742 21.0762 29.9984 20 30C18.9238 29.9984 17.8477 29.9742 16.7725 29.9275L15.5175 29.8675L14.3162 29.7962L13.1912 29.7188L12.1637 29.64C11.0487 29.5547 9.99944 29.0788 9.20059 28.2962C8.40174 27.5136 7.90447 26.4743 7.79625 25.3612L7.74625 24.83L7.6525 23.6925C7.55692 22.4639 7.50606 21.2323 7.5 20C7.5 18.7712 7.565 17.4862 7.6525 16.3075L7.74625 15.17C7.7625 14.9875 7.77875 14.8112 7.79625 14.6388C7.90443 13.5259 8.40152 12.4868 9.20011 11.7042C9.99871 10.9216 11.0477 10.4456 12.1625 10.36L13.1888 10.28L14.3138 10.2038L15.5163 10.1325L16.7712 10.0725C17.8469 10.0258 18.9234 10.0016 20 10ZM17.5 16.9688V23.0312C17.5 23.6088 18.125 23.9688 18.625 23.6812L23.875 20.65C23.9892 20.5842 24.0841 20.4895 24.1501 20.3754C24.2161 20.2613 24.2508 20.1318 24.2508 20C24.2508 19.8682 24.2161 19.7387 24.1501 19.6246C24.0841 19.5105 23.9892 19.4158 23.875 19.35L18.625 16.32C18.511 16.2542 18.3816 16.2195 18.2499 16.2195C18.1182 16.2195 17.9888 16.2542 17.8748 16.3201C17.7608 16.386 17.6661 16.4808 17.6003 16.5948C17.5345 16.7089 17.4999 16.8383 17.5 16.97V16.9688Z" fill="#0E0E0F"/>
    </g>
  </g>
  <defs>
    <clipPath id="clip0_951_8972">
      <rect width="50" height="50" fill="white"/>
    </clipPath>
  </defs>
</svg>
