<svg width="32" height="33" viewBox="0 0 32 33" fill="none" xmlns="http://www.w3.org/2000/svg">
<path d="M9.0438 5.83325H8.46409C6.92661 5.83325 5.45209 6.45759 4.36492 7.56892C3.27776 8.68024 2.66699 10.1875 2.66699 11.7592V27.1666H6.14525L7.38815 23.9915C7.70611 23.1795 8.25471 22.4836 8.96323 21.9934C9.67174 21.5032 10.5077 21.2412 11.3632 21.2412C12.2188 21.2412 13.0547 21.5032 13.7632 21.9934C14.4717 22.4836 15.0203 23.1795 15.3383 23.9915L16.58 27.1666H20.0583V19.4629C20.0583 18.9914 20.2415 18.5392 20.5677 18.2058C20.8938 17.8724 21.3362 17.6851 21.7974 17.6851C22.2587 17.6851 22.701 17.8724 23.0272 18.2058C23.3533 18.5392 23.5366 18.9914 23.5366 19.4629V24.2036C23.5366 24.9894 23.8419 25.7431 24.3855 26.2988C24.9291 26.8544 25.6664 27.1666 26.4351 27.1666H29.3337V23.611H27.0148V11.7592C27.0148 10.1875 26.4041 8.68024 25.3169 7.56892C24.2297 6.45759 22.7552 5.83325 21.2177 5.83325H11.9424V12.9444C11.9424 13.3335 12.0173 13.7188 12.163 14.0782C12.3087 14.4377 12.5222 14.7644 12.7913 15.0395C13.3349 15.5952 14.0722 15.9073 14.8409 15.9073H15.4206L16.4258 12.8223C16.6395 12.1675 17.0493 11.5979 17.5972 11.1944C18.1451 10.7909 18.8033 10.5739 19.4786 10.574M23.5366 13.537V11.1666" stroke="#4A6793" stroke-width="1.5" stroke-linecap="round"/>
</svg>
