<svg width="196" height="196" viewBox="0 0 196 196" fill="none" xmlns="http://www.w3.org/2000/svg">
<path d="M142.432 181.99C144.844 180.298 147.23 178.564 149.683 176.932C150.762 176.159 151.949 175.55 153.207 175.125C153.837 174.939 155.109 175.33 155.358 175.825C155.726 176.565 155.548 177.646 155.393 178.548C155.324 178.952 154.795 179.333 154.396 179.616C149.527 183.091 144.729 186.683 139.73 189.964C136.488 192.091 133.933 191.353 132.551 187.758C130.405 182.177 128.621 176.45 126.936 170.71C126.675 169.819 127.462 168.008 128.282 167.55C129.636 166.794 130.74 167.904 131.269 169.309C132.603 172.853 133.931 176.399 135.252 179.948C135.797 179.741 136.262 179.702 136.324 179.522C144.418 156.367 146.983 132.774 140.288 108.909C130.797 75.0833 108.34 54.0766 74.6602 44.9789C57.5019 40.3435 40.1015 40.5429 22.6868 43.6655C21.215 43.9296 19.6887 44.5069 18.2794 44.304C17.2039 44.1477 15.6076 43.1016 15.4613 42.2431C15.3103 41.361 16.535 40.1349 17.3623 39.244C17.7431 38.8349 18.5983 38.8381 19.2499 38.7126C44.8773 33.7759 70.0541 34.7322 93.9494 46.0622C128.143 62.2758 145.588 90.2511 149.068 127.384C150.641 144.168 148.152 160.572 143.202 176.632C142.718 178.204 142.25 179.781 141.774 181.355L142.432 181.99Z" fill="#1C1C1C"/>
</svg>
