<svg width="100" height="198" viewBox="0 0 100 198" fill="none" xmlns="http://www.w3.org/2000/svg">
<path d="M99.1308 1.42574C99.3888 2.14874 98.6123 3.51024 97.9143 4.22574C97.594 4.55349 97.1397 4.74174 96.6557 4.90568L96.0018 5.11997C95.7295 5.21168 95.4624 5.31169 95.2183 5.43974C72.9128 17.1452 55.4183 33.6437 44.5683 56.6527C41.4733 63.2167 40.4473 68.5677 40.6818 74.3027L41.1597 74.1574L42.5573 73.7434C43.1674 73.5609 43.7635 73.3742 44.3493 73.1597C54.4338 69.4662 64.3928 70.4012 74.0153 74.5402C84.3178 78.9717 88.2617 89.5662 83.9258 99.9227C77.5943 115.046 61.1593 119.019 48.6683 108.41C42.5093 103.179 38.7273 96.4382 36.4858 88.7602L35.8424 86.5309C35.7345 86.1596 35.6253 85.7887 35.5133 85.4187C35.4975 85.3668 35.4675 85.3191 35.4214 85.262L35.3582 85.1879L35.1825 84.9908L35.0685 84.8572C35.048 84.8325 35.0268 84.8066 35.0048 84.7792C34.4622 84.9083 33.942 85.1177 33.4613 85.4002C17.3973 98.0752 7.37676 114.282 6.17126 134.95C4.87126 157.255 20.9118 176.763 42.7478 180.456C49.6168 181.618 60.6667 179.902 68.5052 176.311L63.4592 173.909L62.0292 173.225C61.8711 173.149 61.7131 173.073 61.5553 172.997C61.3809 172.913 61.2005 172.834 61.0176 172.757L60.4643 172.529L60.0972 172.374C59.4906 172.111 58.9195 171.813 58.5123 171.369C57.8573 170.654 57.2903 169.169 57.6163 168.441C57.9423 167.713 59.4608 167.101 60.3918 167.182C61.1614 167.249 61.9085 167.58 62.6522 167.945L63.2603 168.247C63.5306 168.381 63.8011 168.511 64.0728 168.626L65.9757 169.431L69.7842 171.036C72.3228 172.107 74.8586 173.185 77.3798 174.295C81.0673 175.92 81.4408 177.758 78.7603 180.682C74.2633 185.589 69.7511 190.481 65.2238 195.359C65.1288 195.461 65.0333 195.568 64.9369 195.679L64.4105 196.287L64.2233 196.496L64.0965 196.632L63.968 196.765C63.9249 196.808 63.8815 196.851 63.8378 196.893L63.7056 197.016C62.8842 197.756 61.9464 198.131 60.7688 197.122C59.4306 195.974 59.677 194.8 60.3589 193.705L60.4644 193.541L60.5755 193.378L60.6914 193.217L60.8112 193.058L60.9965 192.821L61.1224 192.665L61.3862 192.347L61.7097 191.961C63.04 190.361 64.4018 188.789 65.7697 187.221L67.8228 184.871L68.8468 183.694L68.5343 182.814L58.9123 185.031C28.2623 192.14 4.93575 168.092 1.21725 145.376C-0.832745 132.854 1.64975 121.173 6.90225 109.983C12.6488 97.7402 20.6243 87.1827 32.1063 79.6627C33.9407 78.4607 34.7256 77.1089 34.7892 74.9644L34.7928 74.7887C34.9093 64.5177 38.4043 55.2182 43.5108 46.4917C54.8864 27.0516 70.8316 12.4365 90.7111 2.06959L91.3148 1.75674C92.921 0.898935 94.6567 0.309812 96.4532 0.012742C97.3132 -0.111258 98.8693 0.692742 99.1308 1.42574ZM41.0698 80.8677C41.2563 89.8052 46.0828 99.4477 52.9263 104.79C62.2723 112.086 73.4818 109.321 78.4863 98.4837C82.2798 90.2692 79.5238 82.5742 71.1178 79.2862C61.0943 75.3637 51.0563 75.0532 41.0698 80.8677Z" fill="#1C1C1C"/>
</svg>
