<svg width="82" height="102" viewBox="0 0 82 102" fill="none" xmlns="http://www.w3.org/2000/svg">
<path d="M44.9746 92.8193C47.1258 91.1029 48.2849 90.1854 49.4366 89.2581C77.4989 66.664 73.7639 24.0409 42.1331 6.75583C38.5171 4.77926 34.5483 3.42511 30.694 1.90835C28.9969 1.24031 27.2585 1.42687 26.6132 3.46261C25.947 5.56357 27.5379 6.37693 29.1243 7.10255C33.4923 9.10127 38.1559 10.6487 42.158 13.2214C68.1369 29.9237 69.9713 65.9013 45.9555 84.9747C44.686 85.9814 43.2794 86.8211 41.3244 88.1571C41.4356 86.2111 41.4584 84.9624 41.5911 83.7248C41.7326 82.4069 42.0327 81.1055 42.165 79.7867C42.3311 78.1441 41.8918 76.4765 40.0339 76.5648C39.1315 76.6073 37.7682 78.0042 37.5302 79.0062C36.6227 82.8868 35.9171 86.8118 35.4163 90.7654C35.066 93.0211 36.4125 95.1953 38.588 95.8867C42.4822 97.3313 46.4378 98.6354 50.4496 99.6859C51.4075 99.9365 53.2209 99.28 53.7074 98.4761C54.6687 96.8859 53.493 95.6671 51.912 95.0947C49.9219 94.3723 47.8879 93.7667 44.9746 92.8193Z" fill="#1C1C1C"/>
</svg>
