<svg width="34" height="94" viewBox="0 0 34 94" fill="none" xmlns="http://www.w3.org/2000/svg">
<path d="M15.6208 78.2419C15.0913 71.6419 14.4978 65.0464 14.0448 58.4419C12.8686 40.8637 10.6312 23.3726 7.34483 6.06438C7.12883 4.93388 6.82283 3.70437 7.07133 2.64037C7.25433 1.85787 8.20133 0.844378 8.94233 0.717379C9.66783 0.592882 10.7923 1.27788 11.3228 1.94138C11.9043 2.66888 12.0943 3.75939 12.3058 4.72438C16.0627 22.1107 18.4384 39.7669 19.4108 57.5279C19.7397 64.7235 20.5114 71.8921 21.7213 78.9929C22.3562 78.1966 22.927 77.3513 23.4283 76.4649C25.4108 72.2574 27.2113 67.9594 29.3348 63.8259C29.8008 62.9189 31.4348 61.9099 32.3268 62.0699C34.1433 62.3954 34.2678 64.0569 33.6998 65.6599C33.4228 66.4419 33.1498 67.2284 32.8028 67.9809C29.4093 75.3809 26.0813 82.8124 22.5668 90.1539C20.5333 94.4004 18.2168 94.6004 15.7938 90.7804C10.8098 82.9219 5.96683 74.9739 1.07933 67.0539C0.733827 66.4944 0.261827 65.8594 0.273603 65.2679C0.292329 64.3574 0.448838 62.8829 0.962339 62.6754C1.99646 62.315 3.13356 62.398 4.10434 62.9049C5.02034 63.4584 5.56782 64.6639 6.20183 65.6339C9.00183 69.9164 11.7743 74.2164 14.5568 78.5099L15.6208 78.2419Z" fill="#1C1C1C"/>
</svg>
