<svg width="166" height="185" viewBox="0 0 166 185" fill="none" xmlns="http://www.w3.org/2000/svg">
<path d="M13.3455 166.27C16.1075 164.173 18.8795 162.09 21.6245 159.97C22.5867 159.324 23.4568 158.55 24.211 157.67C24.621 157.115 24.8405 155.879 24.504 155.439C23.9965 154.775 22.804 154.052 22.125 154.223C20.7066 154.638 19.379 155.317 18.2115 156.223C13.1115 159.958 8.08946 163.801 3.01446 167.573C-0.275538 170.017 -0.442038 172.876 3.13846 175.032C8.82996 178.458 14.781 181.454 20.625 184.627C20.9155 184.784 21.275 185.055 21.5325 184.99C22.5635 184.73 24.0675 184.632 24.44 183.951C24.82 183.257 24.407 181.599 23.755 180.984C22.5785 179.875 20.986 179.192 19.5305 178.399C16.955 176.996 14.3525 175.645 10.8895 173.81C14.4895 172.91 17.0185 172.332 19.52 171.651C49.303 163.529 73.953 147.164 94.486 124.438C109.294 108.049 120.477 89.5211 126.247 67.9826C128.676 58.9156 129.592 49.6826 129.573 40.4326C129.873 40.0901 130.049 39.6871 130.308 39.6241C140.741 37.0741 148.392 30.7551 154.222 21.9886C157.356 17.2786 160.459 12.5476 163.472 7.76161C164.315 6.53622 164.87 5.13672 165.097 3.66711C165.184 2.76712 164.356 1.2841 163.562 0.946609C162.824 0.632111 161.421 1.27461 160.619 1.89362C159.889 2.45712 159.615 3.58411 159.066 4.41461C155.216 10.2456 151.554 16.2146 147.433 21.8471C143.006 27.8996 137.233 32.2546 129.118 33.9936C128.68 32.1401 128.252 30.4386 127.878 28.7256C126.424 21.7016 123.701 15.0019 119.842 8.95561C115.247 1.87761 107.522 1.81161 102.692 8.74712C98.7495 14.4071 98.96 22.2311 103.37 28.4021C107.413 34.0601 113.025 37.4436 119.699 39.1446C120.82 39.4306 121.978 39.5706 123.479 39.8446C123.625 41.0946 123.883 42.3646 123.905 43.6381C124.11 55.2921 121.551 66.4381 117.443 77.2511C101.43 119.411 60.375 155.761 16.5435 166.655C15.602 166.889 14.636 167.024 13.6815 167.205L13.3455 166.27ZM123.121 34.7386C119.317 33.1211 116.458 32.2241 113.929 30.7586C109.809 28.3701 106.576 25.0546 105.494 20.1766C104.6 16.1416 105.516 12.5556 108.73 9.84012C110.717 8.16162 112.586 8.21861 113.92 10.1366C118.799 17.1531 121.953 24.8556 123.121 34.7386Z" fill="#1C1C1C"/>
</svg>
