<svg width="95" height="51" viewBox="0 0 95 51" fill="none" xmlns="http://www.w3.org/2000/svg">
<path fill-rule="evenodd" clip-rule="evenodd" d="M73.5212 7.6377H79.1152C81.5056 7.6377 83.4438 9.61822 83.4438 12.061V18.3897C83.4438 20.8324 81.5056 22.8129 79.1152 22.8129H77.084V31.4553H73.5212V7.6377ZM78.5491 19.6146C79.4481 19.6146 79.881 19.1722 79.881 18.2195V12.2311C79.881 11.2784 79.4481 10.8361 78.5491 10.8361H77.084V19.6146H78.5491Z" fill="white"/>
<path d="M57.0659 19.2403L53.4698 16.5524C52.8039 16.076 52.4709 15.5996 52.4709 14.6129V11.9589C52.4709 11.0403 52.9038 10.5979 53.8028 10.5979H54.2356C55.1347 10.5979 55.5675 11.0403 55.5675 11.9589V14.0409L59.0637 16.144V11.8228C59.0637 8.89668 57.6319 7.43359 54.7684 7.43359H53.27C50.3732 7.43359 48.9414 8.89668 48.9414 11.8569V15.1233C48.9414 16.9607 49.4076 18.0835 51.0058 19.2403L54.6019 21.9283C55.2679 22.4387 55.6008 22.881 55.6008 23.8678V27.1342C55.6008 28.0529 55.168 28.4952 54.2356 28.4952H53.7695C52.8372 28.4952 52.4043 28.0529 52.4043 27.1342V24.4738L48.9414 22.2346V27.2703C48.9414 30.1965 50.3399 31.6595 53.2367 31.6595H54.8017C57.6985 31.6595 59.1303 30.1965 59.1303 27.2363V23.3574C59.1303 21.418 58.6309 20.3972 57.0659 19.2403Z" fill="white"/>
<path d="M38.2402 7.6377V31.4553H46.4646V28.1549H41.803V20.9756H46.2315V17.6751H41.803V10.9381H46.398V7.6377H38.2402Z" fill="white"/>
<path d="M62.1694 7.6377V31.4553H70.3938V28.1549H65.7322V20.9756H70.1607V17.6751H65.7322V10.9381H70.3272V7.6377H62.1694Z" fill="white"/>
<path d="M85.7756 7.6377V31.4553H94V28.1549H89.3384V20.9756H93.7669V17.6751H89.3384V10.9381H93.9334V7.6377H85.7756Z" fill="white"/>
<path d="M9.93506 31.0299H16.1229V0.1521H9.93506V31.0299Z" fill="white"/>
<path d="M1.07642 31.03H7.2643V7.36401H1.07642V31.03Z" fill="white"/>
<path d="M18.793 31.03H24.9808V7.36401H18.793V31.03Z" fill="white"/>
<path d="M1.06359 44.6492C1.06359 44.6007 1.09885 44.5677 1.15173 44.5677H1.47786C1.53074 44.5677 1.566 44.6007 1.566 44.6492V49.9909C1.566 50.0394 1.53074 50.0717 1.47786 50.0717H1.15173C1.09885 50.0717 1.06359 50.0394 1.06359 49.9909V44.6492Z" fill="white" stroke="white"/>
<path d="M7.00415 44.6492C7.00415 44.6007 7.03941 44.5677 7.09229 44.5677H7.41842C7.48075 44.5677 7.53363 44.5845 7.56826 44.6492L10.5588 49.1733H10.5846V44.6492C10.5846 44.6007 10.6199 44.5677 10.6728 44.5677H10.9995C11.0524 44.5677 11.087 44.6007 11.087 44.6492V49.9909C11.087 50.0394 11.0524 50.0717 10.9995 50.0717H10.6551C10.6022 50.0717 10.5494 50.055 10.5059 49.9909L7.54182 45.4581H7.50719V49.9909C7.50719 50.0394 7.47131 50.0717 7.41842 50.0717H7.09229C7.03941 50.0717 7.00415 50.0394 7.00415 49.9909V44.6492Z" fill="white" stroke="white"/>
<path d="M16.5237 44.6492C16.5237 44.6007 16.5589 44.5677 16.6118 44.5677H16.9468C17.0085 44.5677 17.0525 44.592 17.079 44.6492L19.0282 48.5903H19.0634L20.9686 44.6492C20.995 44.592 21.0391 44.5677 21.092 44.5677H21.4357C21.4886 44.5677 21.5232 44.6007 21.5232 44.6492V49.9909C21.5232 50.0394 21.4886 50.0717 21.4357 50.0717H21.109C21.0561 50.0717 21.0215 50.0394 21.0215 49.9909V45.6852H20.995L19.2655 49.1733C19.2309 49.238 19.1957 49.2623 19.1075 49.2623H18.9306C18.8513 49.2623 18.8166 49.238 18.7814 49.1733L17.0525 45.6852H17.0261V49.9909C17.0261 50.0394 16.9908 50.0717 16.938 50.0717H16.6118C16.5589 50.0717 16.5237 50.0394 16.5237 49.9909V44.6492Z" fill="white" stroke="white"/>
<path fill-rule="evenodd" clip-rule="evenodd" d="M26.7034 47.3197C26.7034 48.2667 26.7739 48.6226 26.8797 48.9144C27.1705 49.7233 27.8404 50.152 28.82 50.152C29.7896 50.152 30.4608 49.7233 30.7516 48.9144C30.8568 48.6226 30.9279 48.2667 30.9279 47.3197C30.9279 46.3727 30.8568 46.0168 30.7516 45.725C30.4608 44.9161 29.7896 44.4874 28.82 44.4874C27.8404 44.4874 27.1705 44.9161 26.8797 45.725C26.7739 46.0168 26.7034 46.3727 26.7034 47.3197ZM28.82 44.9242C29.5604 44.9242 30.0452 45.2478 30.2662 45.855C30.3455 46.0735 30.4161 46.4294 30.4161 47.3197C30.4161 48.2101 30.3455 48.566 30.2662 48.7844C30.0452 49.3917 29.5604 49.7158 28.82 49.7158C28.0702 49.7158 27.5848 49.3917 27.3651 48.7844C27.2857 48.566 27.2146 48.2101 27.2146 47.3197C27.2146 46.4294 27.2857 46.0735 27.3651 45.855C27.5848 45.2478 28.0702 44.9242 28.82 44.9242Z" fill="white"/>
<path d="M26.8797 48.9144L27.3502 48.7452L27.3497 48.744L26.8797 48.9144ZM30.7516 48.9144L30.2812 48.7449L30.2811 48.7452L30.7516 48.9144ZM30.7516 45.725L30.2811 45.8942L30.2812 45.8945L30.7516 45.725ZM26.8797 45.725L27.3497 45.8954L27.3502 45.8942L26.8797 45.725ZM30.2662 45.855L30.7362 45.6843L30.7361 45.6841L30.2662 45.855ZM30.2662 48.7844L30.7361 48.9554L30.7362 48.9551L30.2662 48.7844ZM27.3651 48.7844L27.8352 48.6143L27.835 48.6137L27.3651 48.7844ZM27.3651 45.855L27.835 46.0257L27.8352 46.0252L27.3651 45.855ZM27.3497 48.744C27.2733 48.5332 27.2034 48.2456 27.2034 47.3197H26.2034C26.2034 48.2879 26.2745 48.712 26.4096 49.0848L27.3497 48.744ZM28.82 49.652C28.4021 49.652 28.0888 49.5608 27.8606 49.4151C27.6367 49.2722 27.462 49.0564 27.3502 48.7452L26.4091 49.0836C26.5881 49.5814 26.8939 49.9844 27.3225 50.258C27.7469 50.5289 28.2583 50.652 28.82 50.652V49.652ZM30.2811 48.7452C30.1693 49.0562 29.9943 49.2724 29.7708 49.4155C29.5431 49.5612 29.232 49.652 28.82 49.652V50.652C29.3776 50.652 29.8869 50.5285 30.3099 50.2577C30.7371 49.9842 31.0431 49.5815 31.2221 49.0836L30.2811 48.7452ZM30.4279 47.3197C30.4279 48.2448 30.3575 48.5333 30.2812 48.7449L31.222 49.0839C31.356 48.712 31.4279 48.2886 31.4279 47.3197H30.4279ZM30.2812 45.8945C30.3575 46.1062 30.4279 46.3947 30.4279 47.3197H31.4279C31.4279 46.3508 31.356 45.9275 31.222 45.5555L30.2812 45.8945ZM28.82 44.9874C29.232 44.9874 29.5431 45.0783 29.7708 45.224C29.9943 45.3671 30.1693 45.5833 30.2811 45.8942L31.2221 45.5559C31.0431 45.0579 30.7371 44.6553 30.3099 44.3818C29.8869 44.111 29.3776 43.9874 28.82 43.9874V44.9874ZM27.3502 45.8942C27.462 45.5831 27.6367 45.3673 27.8606 45.2243C28.0888 45.0786 28.4021 44.9874 28.82 44.9874V43.9874C28.2583 43.9874 27.7469 44.1106 27.3225 44.3815C26.8939 44.6551 26.5881 45.0581 26.4091 45.5559L27.3502 45.8942ZM27.2034 47.3197C27.2034 46.3939 27.2733 46.1062 27.3497 45.8954L26.4096 45.5546C26.2745 45.9274 26.2034 46.3516 26.2034 47.3197H27.2034ZM30.7361 45.6841C30.5937 45.2929 30.3548 44.9664 30.0103 44.7426C29.6694 44.5212 29.2624 44.4242 28.82 44.4242V45.4242C29.1181 45.4242 29.3236 45.489 29.4655 45.5812C29.6037 45.671 29.7177 45.81 29.7964 46.026L30.7361 45.6841ZM30.9161 47.3197C30.9161 46.4131 30.8459 45.9864 30.7362 45.6843L29.7963 46.0257C29.8452 46.1605 29.9161 46.4457 29.9161 47.3197H30.9161ZM30.7362 48.9551C30.8459 48.653 30.9161 48.2264 30.9161 47.3197H29.9161C29.9161 48.1938 29.8452 48.479 29.7963 48.6137L30.7362 48.9551ZM28.82 50.2158C29.2625 50.2158 29.6696 50.1186 30.0105 49.897C30.3549 49.6731 30.5937 49.3465 30.7361 48.9554L29.7964 48.6134C29.7177 48.8296 29.6037 48.9687 29.4653 49.0587C29.3234 49.1509 29.118 49.2158 28.82 49.2158V50.2158ZM26.8949 48.9545C27.0367 49.3463 27.2758 49.6735 27.6221 49.8976C27.9645 50.1192 28.374 50.2158 28.82 50.2158V49.2158C28.5162 49.2158 28.3081 49.1504 28.1654 49.0581C28.0267 48.9683 27.9132 48.8298 27.8352 48.6143L26.8949 48.9545ZM26.7146 47.3197C26.7146 48.227 26.7855 48.6533 26.8951 48.9551L27.835 48.6137C27.786 48.4787 27.7146 48.1932 27.7146 47.3197H26.7146ZM26.8951 45.6843C26.7855 45.9861 26.7146 46.4125 26.7146 47.3197H27.7146C27.7146 46.4463 27.786 46.1608 27.835 46.0257L26.8951 45.6843ZM28.82 44.4242C28.3742 44.4242 27.9647 44.5207 27.6223 44.742C27.2759 44.966 27.0367 45.2931 26.8949 45.6849L27.8352 46.0252C27.9132 45.8098 28.0266 45.6714 28.1652 45.5818C28.3079 45.4896 28.5161 45.4242 28.82 45.4242V44.4242Z" fill="white"/>
<path fill-rule="evenodd" clip-rule="evenodd" d="M36.1965 44.5677C36.1437 44.5677 36.1084 44.6007 36.1084 44.6492V49.9909C36.1084 50.0394 36.1437 50.0717 36.1965 50.0717H38.2074C39.3892 50.0717 40.0509 49.5049 40.0509 48.5585C40.0509 47.7571 39.4685 47.3278 39.0278 47.2469V47.2308C39.5831 47.0771 39.9539 46.664 39.9539 45.9926C39.9539 45.1265 39.3451 44.5677 38.2074 44.5677H36.1965ZM38.1993 47.0528C39.0102 47.0528 39.4509 46.6322 39.4509 46.033C39.4509 45.4021 39.0102 45.0051 38.1993 45.0051H36.6643C36.6284 45.0051 36.6114 45.0219 36.6114 45.0537V47.0043C36.6114 47.0366 36.6284 47.0528 36.6643 47.0528H38.1993ZM36.6643 49.6344H38.2427C39.0983 49.6344 39.5478 49.2137 39.5478 48.566C39.5478 47.9189 39.0983 47.4896 38.2427 47.4896H36.6643C36.6284 47.4896 36.6114 47.5058 36.6114 47.5382V49.5858C36.6114 49.6188 36.6284 49.6344 36.6643 49.6344Z" fill="white"/>
<path d="M39.0278 47.2469H38.5278V47.6635L38.9375 47.7387L39.0278 47.2469ZM39.0278 47.2308L38.8944 46.7489L38.5278 46.8504V47.2308H39.0278ZM36.6084 44.6492C36.6084 44.7517 36.5679 44.8685 36.4726 44.957C36.3804 45.0424 36.2739 45.0677 36.1965 45.0677V44.0677C36.0663 44.0677 35.9157 44.1096 35.7927 44.2236C35.6665 44.3406 35.6084 44.4982 35.6084 44.6492H36.6084ZM36.6084 49.9909V44.6492H35.6084V49.9909H36.6084ZM36.1965 49.5717C36.2715 49.5717 36.3778 49.5958 36.4707 49.6811C36.5676 49.77 36.6084 49.8879 36.6084 49.9909H35.6084C35.6084 50.1423 35.6669 50.3007 35.7946 50.4179C35.9184 50.5315 36.0687 50.5717 36.1965 50.5717V49.5717ZM38.2074 49.5717H36.1965V50.5717H38.2074V49.5717ZM39.5509 48.5585C39.5509 48.9065 39.4347 49.1344 39.2529 49.2854C39.0582 49.447 38.7254 49.5717 38.2074 49.5717V50.5717C38.8713 50.5717 39.4601 50.4131 39.8917 50.0547C40.3362 49.6857 40.5509 49.1569 40.5509 48.5585H39.5509ZM38.9375 47.7387C39.1851 47.7842 39.5509 48.0408 39.5509 48.5585H40.5509C40.5509 47.4735 39.7519 46.8715 39.1181 46.7552L38.9375 47.7387ZM38.5278 47.2308V47.2469H39.5278V47.2308H38.5278ZM39.4539 45.9926C39.4539 46.2328 39.3892 46.3908 39.3059 46.497C39.2209 46.6052 39.0882 46.6952 38.8944 46.7489L39.1612 47.7127C39.5227 47.6126 39.853 47.4193 40.0923 47.1146C40.3332 46.808 40.4539 46.4237 40.4539 45.9926H39.4539ZM38.2074 45.0677C38.7005 45.0677 39.0086 45.1891 39.1852 45.3378C39.3507 45.4772 39.4539 45.6846 39.4539 45.9926H40.4539C40.4539 45.4344 40.2527 44.9294 39.8294 44.5729C39.4172 44.2258 38.8521 44.0677 38.2074 44.0677V45.0677ZM36.1965 45.0677H38.2074V44.0677H36.1965V45.0677ZM38.9509 46.033C38.9509 46.202 38.8934 46.3117 38.8051 46.3868C38.7084 46.4692 38.5225 46.5528 38.1993 46.5528V47.5528C38.687 47.5528 39.1269 47.4261 39.4532 47.1484C39.788 46.8634 39.9509 46.4632 39.9509 46.033H38.9509ZM38.1993 45.5051C38.5294 45.5051 38.7136 45.5862 38.8071 45.665C38.8892 45.7341 38.9509 45.8419 38.9509 46.033H39.9509C39.9509 45.5932 39.7922 45.1871 39.4512 44.9C39.1216 44.6225 38.68 44.5051 38.1993 44.5051V45.5051ZM36.6643 45.5051H38.1993V44.5051H36.6643V45.5051ZM37.1114 45.0537C37.1114 45.1238 37.0911 45.2658 36.9658 45.3828C36.8469 45.4939 36.7153 45.5051 36.6643 45.5051V44.5051C36.5775 44.5051 36.4195 44.5247 36.2831 44.6521C36.1403 44.7855 36.1114 44.9517 36.1114 45.0537H37.1114ZM37.1114 47.0043V45.0537H36.1114V47.0043H37.1114ZM36.6643 46.5528C36.7111 46.5528 36.8436 46.5622 36.9641 46.6738C37.0922 46.7924 37.1114 46.9367 37.1114 47.0043H36.1114C36.1114 47.1042 36.1391 47.2727 36.2847 47.4075C36.4227 47.5353 36.5817 47.5528 36.6643 47.5528V46.5528ZM38.1993 46.5528H36.6643V47.5528H38.1993V46.5528ZM38.2427 49.1344H36.6643V50.1344H38.2427V49.1344ZM39.0478 48.566C39.0478 48.7669 38.983 48.8852 38.8926 48.9618C38.7915 49.0476 38.5946 49.1344 38.2427 49.1344V50.1344C38.7464 50.1344 39.2021 50.0108 39.5396 49.7243C39.8879 49.4288 40.0478 49.0129 40.0478 48.566H39.0478ZM38.2427 47.9896C38.5922 47.9896 38.7888 48.0773 38.8905 48.1646C38.9827 48.2437 39.0478 48.3651 39.0478 48.566H40.0478C40.0478 48.1199 39.8883 47.7031 39.5417 47.4057C39.2047 47.1165 38.7488 46.9896 38.2427 46.9896V47.9896ZM36.6643 47.9896H38.2427V46.9896H36.6643V47.9896ZM37.1114 47.5382C37.1114 47.6057 37.0922 47.75 36.9641 47.8686C36.8436 47.9802 36.7111 47.9896 36.6643 47.9896V46.9896C36.5817 46.9896 36.4227 47.0071 36.2847 47.1349C36.1391 47.2697 36.1114 47.4382 36.1114 47.5382H37.1114ZM37.1114 49.5858V47.5382H36.1114V49.5858H37.1114ZM36.6643 49.1344C36.7069 49.1344 36.8404 49.142 36.9625 49.2541C37.0934 49.3742 37.1114 49.5209 37.1114 49.5858H36.1114C36.1114 49.6837 36.138 49.8546 36.2864 49.9908C36.4259 50.1189 36.5858 50.1344 36.6643 50.1344V49.1344Z" fill="white"/>
<path d="M45.1871 44.6492C45.1871 44.6007 45.2223 44.5677 45.2752 44.5677H45.6013C45.6542 44.5677 45.6901 44.6007 45.6901 44.6492V49.9909C45.6901 50.0394 45.6542 50.0717 45.6013 50.0717H45.2752C45.2223 50.0717 45.1871 50.0394 45.1871 49.9909V44.6492Z" fill="white" stroke="white"/>
<path d="M51.1282 44.6492C51.1282 44.6007 51.1634 44.5677 51.2163 44.5677H51.5424C51.5953 44.5677 51.6306 44.6007 51.6306 44.6492V49.5858C51.6306 49.6188 51.6482 49.6344 51.6835 49.6344H54.6469C54.6998 49.6344 54.7351 49.6673 54.7351 49.7158V49.9909C54.7351 50.0394 54.6998 50.0717 54.6469 50.0717H51.2163C51.1634 50.0717 51.1282 50.0394 51.1282 49.9909V44.6492Z" fill="white" stroke="white"/>
<path d="M59.5809 44.6492C59.5809 44.6007 59.6162 44.5677 59.6691 44.5677H59.9952C60.0481 44.5677 60.0833 44.6007 60.0833 44.6492V49.9909C60.0833 50.0394 60.0481 50.0717 59.9952 50.0717H59.6691C59.6162 50.0717 59.5809 50.0394 59.5809 49.9909V44.6492Z" fill="white" stroke="white"/>
<path fill-rule="evenodd" clip-rule="evenodd" d="M67.1704 44.5682C67.1175 44.5682 67.0823 44.6006 67.0646 44.6491L64.9656 49.9908C64.9486 50.0393 64.975 50.0717 65.0279 50.0717H65.3717C65.4245 50.0717 65.4598 50.0555 65.4862 49.9908L66.0151 48.6393H68.626L69.1549 49.9908C69.1725 50.0555 69.2077 50.0717 69.2694 50.0717H69.6138C69.6667 50.0717 69.6932 50.0393 69.6755 49.9908L67.5941 44.6491C67.5765 44.6006 67.55 44.5682 67.4883 44.5682H67.1704ZM67.3385 45.313L68.4585 48.1938H66.1832L67.312 45.313H67.3385Z" fill="white"/>
<path d="M67.0646 44.6491L67.5301 44.8321L67.5346 44.8198L67.0646 44.6491ZM64.9656 49.9908L64.5002 49.8079L64.4968 49.8166L64.4937 49.8255L64.9656 49.9908ZM65.4862 49.9908L65.9491 50.1799L65.9519 50.173L65.4862 49.9908ZM66.0151 48.6393V48.1393H65.6738L65.5495 48.4571L66.0151 48.6393ZM68.626 48.6393L69.0916 48.4571L68.9673 48.1393H68.626V48.6393ZM69.1549 49.9908L69.6373 49.8593L69.6302 49.8335L69.6205 49.8086L69.1549 49.9908ZM69.6755 49.9908L70.1456 49.82L70.1414 49.8092L69.6755 49.9908ZM67.5941 44.6491L67.124 44.8199L67.1282 44.8307L67.5941 44.6491ZM68.4585 48.1938V48.6938H69.1894L68.9245 48.0127L68.4585 48.1938ZM67.3385 45.313L67.8045 45.1318L67.6806 44.813H67.3385V45.313ZM66.1832 48.1938L65.7177 48.0114L65.4503 48.6938H66.1832V48.1938ZM67.312 45.313V44.813H66.971L66.8465 45.1306L67.312 45.313ZM67.5346 44.8198C67.5198 44.8606 67.4867 44.9246 67.4173 44.9803C67.3425 45.0405 67.2529 45.0682 67.1704 45.0682V44.0682C66.8565 44.0682 66.6651 44.2845 66.5947 44.4784L67.5346 44.8198ZM65.4309 50.1736L67.53 44.832L66.5993 44.4663L64.5002 49.8079L65.4309 50.1736ZM65.0279 49.5717C65.0922 49.5717 65.2473 49.5921 65.364 49.7409C65.4894 49.9009 65.4662 50.0739 65.4375 50.156L64.4937 49.8255C64.4479 49.9562 64.4294 50.1696 64.577 50.3579C64.7159 50.5351 64.9108 50.5717 65.0279 50.5717V49.5717ZM65.3717 49.5717H65.0279V50.5717H65.3717V49.5717ZM65.0234 49.8016C65.0329 49.7783 65.0705 49.6984 65.167 49.6358C65.2628 49.5738 65.3514 49.5717 65.3717 49.5717V50.5717C65.4448 50.5717 65.5775 50.5614 65.7107 50.4751C65.8447 50.3883 65.9131 50.2679 65.9491 50.1799L65.0234 49.8016ZM65.5495 48.4571L65.0206 49.8086L65.9519 50.173L66.4807 48.8215L65.5495 48.4571ZM68.626 48.1393H66.0151V49.1393H68.626V48.1393ZM69.6205 49.8086L69.0916 48.4571L68.1604 48.8215L68.6892 50.173L69.6205 49.8086ZM69.2694 49.5717C69.2736 49.5717 69.2964 49.5717 69.329 49.5784C69.3637 49.5856 69.414 49.6012 69.4675 49.6358C69.5875 49.7136 69.6269 49.8213 69.6373 49.8593L68.6724 50.1222C68.7004 50.2249 68.7663 50.3731 68.9238 50.4751C69.0655 50.5669 69.2088 50.5717 69.2694 50.5717V49.5717ZM69.6138 49.5717H69.2694V50.5717H69.6138V49.5717ZM69.2056 50.1615C69.1759 50.0797 69.1501 49.9047 69.2765 49.7423C69.3937 49.5918 69.5502 49.5717 69.6138 49.5717V50.5717C69.7304 50.5717 69.9265 50.5353 70.0657 50.3565C70.2141 50.1658 70.1928 49.9504 70.1455 49.8201L69.2056 50.1615ZM67.1282 44.8307L69.2096 50.1723L70.1414 49.8092L68.06 44.4676L67.1282 44.8307ZM67.4883 45.0682C67.425 45.0682 67.324 45.0486 67.2325 44.9702C67.154 44.903 67.1277 44.8296 67.1241 44.8198L68.0641 44.4784C68.0429 44.4201 67.9946 44.3063 67.883 44.2107C67.7584 44.104 67.6133 44.0682 67.4883 44.0682V45.0682ZM67.1704 45.0682H67.4883V44.0682H67.1704V45.0682ZM68.9245 48.0127L67.8045 45.1318L66.8725 45.4942L67.9925 48.375L68.9245 48.0127ZM66.1832 48.6938H68.4585V47.6938H66.1832V48.6938ZM66.8465 45.1306L65.7177 48.0114L66.6487 48.3763L67.7776 45.4954L66.8465 45.1306ZM67.3385 44.813H67.312V45.813H67.3385V44.813Z" fill="white"/>
<path fill-rule="evenodd" clip-rule="evenodd" d="M78.0044 49.9991C78.0309 50.0551 78.0573 50.0719 78.1102 50.0719H78.5156C78.5685 50.0719 78.595 50.0308 78.5603 49.9823L77.2552 47.5464C78.022 47.3771 78.481 46.8501 78.481 46.0898C78.481 45.1509 77.7834 44.5679 76.6546 44.5679H74.6443C74.5914 44.5679 74.5562 44.6008 74.5562 44.6493V49.991C74.5562 50.0395 74.5914 50.0719 74.6443 50.0719H74.9711C75.0239 50.0719 75.0586 50.0395 75.0586 49.991V47.6602C75.0586 47.6273 75.0768 47.6117 75.1114 47.6117H76.6546H76.7433L78.0044 49.9991ZM76.6464 45.0053C77.5014 45.0053 77.978 45.4022 77.978 46.0898C77.978 46.7854 77.5014 47.1743 76.6464 47.1743H75.1114C75.0768 47.1743 75.0586 47.1581 75.0586 47.1257V45.0538C75.0586 45.0214 75.0768 45.0053 75.1114 45.0053H76.6464Z" fill="white"/>
<path d="M78.0044 49.9991L78.4566 49.7857L78.4518 49.7755L78.4465 49.7655L78.0044 49.9991ZM78.5603 49.9823L78.1196 50.2184L78.1347 50.2467L78.1533 50.2727L78.5603 49.9823ZM77.2552 47.5464L77.1474 47.0581L76.5026 47.2005L76.8145 47.7825L77.2552 47.5464ZM76.7433 47.6117L77.1855 47.3781L77.0447 47.1117H76.7433V47.6117ZM78.1102 49.5719C78.1335 49.5719 78.228 49.5749 78.3278 49.6425C78.42 49.705 78.4545 49.7813 78.4566 49.7857L77.5522 50.2124C77.5808 50.2729 77.6417 50.3856 77.767 50.4705C77.8998 50.5605 78.034 50.5719 78.1102 50.5719V49.5719ZM78.5156 49.5719H78.1102V50.5719H78.5156V49.5719ZM78.1533 50.2727C78.1009 50.1993 78.0192 50.0126 78.1317 49.8061C78.2379 49.6112 78.4247 49.5719 78.5156 49.5719V50.5719C78.6595 50.5719 78.8859 50.512 79.0099 50.2845C79.1402 50.0453 79.0544 49.8139 78.9674 49.6919L78.1533 50.2727ZM76.8145 47.7825L78.1196 50.2184L79.0011 49.7462L77.6959 47.3102L76.8145 47.7825ZM77.981 46.0898C77.981 46.3651 77.8999 46.5684 77.7746 46.716C77.6471 46.8661 77.4446 46.9925 77.1474 47.0581L77.363 48.0346C77.8327 47.9309 78.2431 47.7092 78.5368 47.3634C78.8326 47.0151 78.981 46.5747 78.981 46.0898H77.981ZM76.6546 45.0679C77.1379 45.0679 77.4695 45.1928 77.6709 45.3607C77.8618 45.5199 77.981 45.7541 77.981 46.0898H78.981C78.981 45.4865 78.7515 44.9598 78.3113 44.5927C77.8818 44.2345 77.3001 44.0679 76.6546 44.0679V45.0679ZM74.6443 45.0679H76.6546V44.0679H74.6443V45.0679ZM75.0562 44.6493C75.0562 44.7519 75.0157 44.8687 74.9203 44.9571C74.8282 45.0425 74.7216 45.0679 74.6443 45.0679V44.0679C74.5141 44.0679 74.3635 44.1097 74.2405 44.2237C74.1142 44.3408 74.0562 44.4983 74.0562 44.6493H75.0562ZM75.0562 49.991V44.6493H74.0562V49.991H75.0562ZM74.6443 49.5719C74.7193 49.5719 74.8255 49.5959 74.9185 49.6812C75.0153 49.7701 75.0562 49.888 75.0562 49.991H74.0562C74.0562 50.1425 74.1146 50.3008 74.2423 50.418C74.3661 50.5316 74.5164 50.5719 74.6443 50.5719V49.5719ZM74.9711 49.5719H74.6443V50.5719H74.9711V49.5719ZM74.5586 49.991C74.5586 49.8908 74.5976 49.773 74.6947 49.683C74.7884 49.5961 74.8959 49.5719 74.9711 49.5719V50.5719C75.0991 50.5719 75.2504 50.5314 75.3746 50.4163C75.5022 50.2979 75.5586 50.1397 75.5586 49.991H74.5586ZM74.5586 47.6602V49.991H75.5586V47.6602H74.5586ZM75.1114 47.1117C75.0292 47.1117 74.8738 47.1291 74.7372 47.2522C74.5908 47.3842 74.5586 47.5525 74.5586 47.6602H75.5586C75.5586 47.7349 75.5355 47.8789 75.4068 47.9949C75.288 48.102 75.1591 48.1117 75.1114 48.1117V47.1117ZM76.6546 47.1117H75.1114V48.1117H76.6546V47.1117ZM76.7433 47.1117H76.6546V48.1117H76.7433V47.1117ZM78.4465 49.7655L77.1855 47.3781L76.3012 47.8452L77.5623 50.2326L78.4465 49.7655ZM78.478 46.0898C78.478 45.6215 78.3099 45.198 77.9497 44.9029C77.6041 44.6198 77.1432 44.5053 76.6464 44.5053V45.5053C77.0045 45.5053 77.2094 45.5892 77.3159 45.6764C77.4078 45.7517 77.478 45.8705 77.478 46.0898H78.478ZM76.6464 47.6743C77.141 47.6743 77.6022 47.5628 77.9486 47.2805C78.3108 46.9854 78.478 46.5607 78.478 46.0898H77.478C77.478 46.3145 77.4069 46.432 77.317 46.5053C77.2114 46.5913 77.0068 46.6743 76.6464 46.6743V47.6743ZM75.1114 47.6743H76.6464V46.6743H75.1114V47.6743ZM74.5586 47.1257C74.5586 47.2354 74.592 47.4014 74.7356 47.532C74.8706 47.6548 75.025 47.6743 75.1114 47.6743V46.6743C75.1633 46.6743 75.2913 46.6857 75.4085 46.7923C75.5343 46.9067 75.5586 47.0484 75.5586 47.1257H74.5586ZM74.5586 45.0538V47.1257H75.5586V45.0538H74.5586ZM75.1114 44.5053C75.025 44.5053 74.8706 44.5247 74.7356 44.6475C74.592 44.7781 74.5586 44.9441 74.5586 45.0538H75.5586C75.5586 45.1311 75.5343 45.2728 75.4085 45.3873C75.2913 45.4939 75.1633 45.5053 75.1114 45.5053V44.5053ZM76.6464 44.5053H75.1114V45.5053H76.6464V44.5053Z" fill="white"/>
<path d="M83.7579 44.6492C83.7579 44.6007 83.7931 44.5677 83.846 44.5677H84.1721C84.225 44.5677 84.2609 44.6007 84.2609 44.6492V49.9909C84.2609 50.0394 84.225 50.0717 84.1721 50.0717H83.846C83.7931 50.0717 83.7579 50.0394 83.7579 49.9909V44.6492Z" fill="white" stroke="white"/>
<path fill-rule="evenodd" clip-rule="evenodd" d="M91.348 44.5682C91.2951 44.5682 91.2592 44.6006 91.2422 44.6491L89.1431 49.9908C89.1255 50.0393 89.1519 50.0717 89.2048 50.0717H89.5492C89.6021 50.0717 89.6367 50.0555 89.6632 49.9908L90.1927 48.6393H92.8036L93.3318 49.9908C93.35 50.0555 93.3847 50.0717 93.447 50.0717H93.7908C93.8436 50.0717 93.8701 50.0393 93.8525 49.9908L91.771 44.6491C91.754 44.6006 91.7276 44.5682 91.6653 44.5682H91.348ZM91.5154 45.313L92.6355 48.1938H90.3601L91.489 45.313H91.5154Z" fill="white"/>
<path d="M91.2422 44.6491L91.7075 44.832L91.711 44.8233L91.7141 44.8144L91.2422 44.6491ZM89.1431 49.9908L88.6776 49.8078L88.6732 49.8201L89.1431 49.9908ZM89.6632 49.9908L90.1261 50.1799L90.1287 50.1732L89.6632 49.9908ZM90.1927 48.6393V48.1393H89.8515L89.7271 48.4569L90.1927 48.6393ZM92.8036 48.6393L93.2693 48.4573L93.145 48.1393H92.8036V48.6393ZM93.3318 49.9908L93.813 49.855L93.8064 49.8315L93.7975 49.8087L93.3318 49.9908ZM93.8525 49.9908L94.3225 49.82L94.3183 49.8092L93.8525 49.9908ZM91.771 44.6491L91.2991 44.8144L91.302 44.8226L91.3052 44.8307L91.771 44.6491ZM92.6355 48.1938V48.6938H93.3663L93.1015 48.0127L92.6355 48.1938ZM91.5154 45.313L91.9814 45.1318L91.8575 44.813H91.5154V45.313ZM90.3601 48.1938L89.8946 48.0114L89.6272 48.6938H90.3601V48.1938ZM91.489 45.313V44.813H91.1479L91.0234 45.1306L91.489 45.313ZM91.7141 44.8144C91.6983 44.8595 91.6639 44.925 91.5938 44.981C91.519 45.0408 91.4299 45.0682 91.348 45.0682V44.0682C91.0376 44.0682 90.8414 44.2809 90.7703 44.4838L91.7141 44.8144ZM89.6085 50.1736L91.7075 44.832L90.7768 44.4663L88.6778 49.8079L89.6085 50.1736ZM89.2048 49.5717C89.2685 49.5717 89.425 49.5918 89.5421 49.7423C89.6685 49.9047 89.6428 50.0797 89.6131 50.1615L88.6732 49.8201C88.6258 49.9504 88.6045 50.1658 88.753 50.3565C88.8922 50.5353 89.0883 50.5717 89.2048 50.5717V49.5717ZM89.5492 49.5717H89.2048V50.5717H89.5492V49.5717ZM89.2003 49.8016C89.2091 49.7802 89.246 49.7 89.3426 49.6369C89.4392 49.5738 89.529 49.5717 89.5492 49.5717V50.5717C89.6224 50.5717 89.7558 50.5614 89.8896 50.4741C90.0233 50.3867 90.0908 50.266 90.126 50.1799L89.2003 49.8016ZM89.7271 48.4569L89.1976 49.8084L90.1287 50.1732L90.6582 48.8217L89.7271 48.4569ZM92.8036 48.1393H90.1927V49.1393H92.8036V48.1393ZM93.7975 49.8087L93.2693 48.4573L92.3379 48.8213L92.8661 50.1728L93.7975 49.8087ZM93.447 49.5717C93.4508 49.5717 93.4734 49.5717 93.506 49.5784C93.5407 49.5855 93.5912 49.6012 93.6447 49.6358C93.7642 49.7133 93.8032 49.8201 93.813 49.855L92.8506 50.1265C92.8787 50.2261 92.944 50.3734 93.101 50.4751C93.243 50.5671 93.3866 50.5717 93.447 50.5717V49.5717ZM93.7908 49.5717H93.447V50.5717H93.7908V49.5717ZM93.3825 50.1615C93.3528 50.0797 93.3271 49.9047 93.4535 49.7423C93.5706 49.5918 93.7271 49.5717 93.7908 49.5717V50.5717C93.9073 50.5717 94.1034 50.5353 94.2426 50.3565C94.3911 50.1658 94.3698 49.9504 94.3224 49.8201L93.3825 50.1615ZM91.3052 44.8307L93.3866 50.1723L94.3183 49.8092L92.2369 44.4676L91.3052 44.8307ZM91.6653 45.0682C91.6039 45.0682 91.5024 45.0495 91.4099 44.9702C91.3297 44.9015 91.3033 44.8261 91.2991 44.8144L92.2429 44.4838C92.2218 44.4236 92.1737 44.3077 92.0604 44.2107C91.9348 44.1032 91.789 44.0682 91.6653 44.0682V45.0682ZM91.348 45.0682H91.6653V44.0682H91.348V45.0682ZM93.1015 48.0127L91.9814 45.1318L91.0494 45.4942L92.1694 48.375L93.1015 48.0127ZM90.3601 48.6938H92.6355V47.6938H90.3601V48.6938ZM91.0234 45.1306L89.8946 48.0114L90.8257 48.3763L91.9545 45.4954L91.0234 45.1306ZM91.5154 44.813H91.489V45.813H91.5154V44.813Z" fill="white"/>
</svg>
