<svg width="95" height="51" viewBox="0 0 95 51" fill="none" xmlns="http://www.w3.org/2000/svg">
<path fill-rule="evenodd" clip-rule="evenodd" d="M73.5212 7.4856H79.1152C81.5056 7.4856 83.4438 9.46612 83.4438 11.9089V18.2376C83.4438 20.6803 81.5056 22.6608 79.1152 22.6608H77.084V31.3032H73.5212V7.4856ZM78.5491 19.4625C79.4481 19.4625 79.881 19.0201 79.881 18.0674V12.079C79.881 11.1263 79.4481 10.684 78.5491 10.684H77.084V19.4625H78.5491Z" fill="#123752"/>
<path d="M57.0659 19.0882L53.4698 16.4003C52.8039 15.9239 52.4709 15.4475 52.4709 14.4608V11.8068C52.4709 10.8882 52.9038 10.4458 53.8028 10.4458H54.2356C55.1347 10.4458 55.5675 10.8882 55.5675 11.8068V13.8888L59.0637 15.9919V11.6707C59.0637 8.74458 57.6319 7.28149 54.7684 7.28149H53.27C50.3732 7.28149 48.9414 8.74458 48.9414 11.7048V14.9712C48.9414 16.8086 49.4076 17.9314 51.0058 19.0882L54.6019 21.7762C55.2679 22.2866 55.6008 22.7289 55.6008 23.7157V26.9821C55.6008 27.9008 55.168 28.3431 54.2356 28.3431H53.7695C52.8372 28.3431 52.4043 27.9008 52.4043 26.9821V24.3217L48.9414 22.0825V27.1182C48.9414 30.0444 50.3399 31.5074 53.2367 31.5074H54.8017C57.6985 31.5074 59.1303 30.0444 59.1303 27.0842V23.2053C59.1303 21.2659 58.6309 20.2451 57.0659 19.0882Z" fill="#123752"/>
<path d="M38.2402 7.4856V31.3032H46.4646V28.0028H41.803V20.8235H46.2315V17.523H41.803V10.786H46.398V7.4856H38.2402Z" fill="#123752"/>
<path d="M62.1694 7.4856V31.3032H70.3938V28.0028H65.7322V20.8235H70.1607V17.523H65.7322V10.786H70.3272V7.4856H62.1694Z" fill="#123752"/>
<path d="M85.7756 7.4856V31.3032H94V28.0028H89.3384V20.8235H93.7669V17.523H89.3384V10.786H93.9334V7.4856H85.7756Z" fill="#123752"/>
<path d="M9.93506 30.8778H16.1229V0H9.93506V30.8778Z" fill="#123752"/>
<path d="M1.07642 30.8779H7.2643V7.21191H1.07642V30.8779Z" fill="#123752"/>
<path d="M18.793 30.8779H24.9808V7.21191H18.793V30.8779Z" fill="#123752"/>
<path d="M1.06359 44.4972C1.06359 44.4487 1.09885 44.4158 1.15173 44.4158H1.47786C1.53074 44.4158 1.566 44.4487 1.566 44.4972V49.8389C1.566 49.8874 1.53074 49.9198 1.47786 49.9198H1.15173C1.09885 49.9198 1.06359 49.8874 1.06359 49.8389V44.4972Z" fill="#123752" stroke="#123752"/>
<path d="M7.00415 44.4972C7.00415 44.4487 7.03941 44.4158 7.09229 44.4158H7.41842C7.48075 44.4158 7.53363 44.4325 7.56826 44.4972L10.5588 49.0213H10.5846V44.4972C10.5846 44.4487 10.6199 44.4158 10.6728 44.4158H10.9995C11.0524 44.4158 11.087 44.4487 11.087 44.4972V49.8389C11.087 49.8874 11.0524 49.9198 10.9995 49.9198H10.6551C10.6022 49.9198 10.5494 49.903 10.5059 49.8389L7.54182 45.3061H7.50719V49.8389C7.50719 49.8874 7.47131 49.9198 7.41842 49.9198H7.09229C7.03941 49.9198 7.00415 49.8874 7.00415 49.8389V44.4972Z" fill="#123752" stroke="#123752"/>
<path d="M16.5237 44.4972C16.5237 44.4487 16.5589 44.4158 16.6118 44.4158H16.9468C17.0085 44.4158 17.0525 44.44 17.079 44.4972L19.0282 48.4383H19.0634L20.9686 44.4972C20.995 44.44 21.0391 44.4158 21.092 44.4158H21.4357C21.4886 44.4158 21.5232 44.4487 21.5232 44.4972V49.8389C21.5232 49.8874 21.4886 49.9198 21.4357 49.9198H21.109C21.0561 49.9198 21.0215 49.8874 21.0215 49.8389V45.5332H20.995L19.2655 49.0213C19.2309 49.086 19.1957 49.1103 19.1075 49.1103H18.9306C18.8513 49.1103 18.8166 49.086 18.7814 49.0213L17.0525 45.5332H17.0261V49.8389C17.0261 49.8874 16.9908 49.9198 16.938 49.9198H16.6118C16.5589 49.9198 16.5237 49.8874 16.5237 49.8389V44.4972Z" fill="#123752" stroke="#123752"/>
<path fill-rule="evenodd" clip-rule="evenodd" d="M26.7034 47.1678C26.7034 48.1148 26.7739 48.4707 26.8797 48.7624C27.1705 49.5714 27.8404 50.0001 28.82 50.0001C29.7896 50.0001 30.4608 49.5714 30.7516 48.7624C30.8568 48.4707 30.9279 48.1148 30.9279 47.1678C30.9279 46.2208 30.8568 45.8649 30.7516 45.5731C30.4608 44.7642 29.7896 44.3354 28.82 44.3354C27.8404 44.3354 27.1705 44.7642 26.8797 45.5731C26.7739 45.8649 26.7034 46.2208 26.7034 47.1678ZM28.82 44.7723C29.5604 44.7723 30.0452 45.0958 30.2662 45.7031C30.3455 45.9215 30.4161 46.2774 30.4161 47.1678C30.4161 48.0581 30.3455 48.414 30.2662 48.6324C30.0452 49.2397 29.5604 49.5638 28.82 49.5638C28.0702 49.5638 27.5848 49.2397 27.3651 48.6324C27.2857 48.414 27.2146 48.0581 27.2146 47.1678C27.2146 46.2774 27.2857 45.9215 27.3651 45.7031C27.5848 45.0958 28.0702 44.7723 28.82 44.7723Z" fill="#123752"/>
<path d="M26.8797 48.7624L27.3502 48.5933L27.3497 48.5921L26.8797 48.7624ZM30.7516 48.7624L30.2812 48.5929L30.2811 48.5933L30.7516 48.7624ZM30.7516 45.5731L30.2811 45.7423L30.2812 45.7426L30.7516 45.5731ZM26.8797 45.5731L27.3497 45.7435L27.3502 45.7423L26.8797 45.5731ZM30.2662 45.7031L30.7362 45.5324L30.7361 45.5321L30.2662 45.7031ZM30.2662 48.6324L30.7361 48.8034L30.7362 48.8031L30.2662 48.6324ZM27.3651 48.6324L27.8352 48.4623L27.835 48.4617L27.3651 48.6324ZM27.3651 45.7031L27.835 45.8738L27.8352 45.8732L27.3651 45.7031ZM27.3497 48.5921C27.2733 48.3813 27.2034 48.0936 27.2034 47.1678H26.2034C26.2034 48.1359 26.2745 48.5601 26.4096 48.9328L27.3497 48.5921ZM28.82 49.5001C28.4021 49.5001 28.0888 49.4088 27.8606 49.2632C27.6367 49.1202 27.462 48.9044 27.3502 48.5933L26.4091 48.9316C26.5881 49.4294 26.8939 49.8324 27.3225 50.106C27.7469 50.3769 28.2583 50.5001 28.82 50.5001V49.5001ZM30.2811 48.5933C30.1693 48.9042 29.9943 49.1204 29.7708 49.2635C29.5431 49.4092 29.232 49.5001 28.82 49.5001V50.5001C29.3776 50.5001 29.8869 50.3765 30.3099 50.1057C30.7371 49.8322 31.0431 49.4296 31.2221 48.9316L30.2811 48.5933ZM30.4279 47.1678C30.4279 48.0928 30.3575 48.3813 30.2812 48.5929L31.222 48.932C31.356 48.56 31.4279 48.1367 31.4279 47.1678H30.4279ZM30.2812 45.7426C30.3575 45.9542 30.4279 46.2427 30.4279 47.1678H31.4279C31.4279 46.1988 31.356 45.7755 31.222 45.4036L30.2812 45.7426ZM28.82 44.8354C29.232 44.8354 29.5431 44.9263 29.7708 45.072C29.9943 45.2151 30.1693 45.4313 30.2811 45.7423L31.2221 45.4039C31.0431 44.906 30.7371 44.5033 30.3099 44.2298C29.8869 43.959 29.3776 43.8354 28.82 43.8354V44.8354ZM27.3502 45.7423C27.462 45.4311 27.6367 45.2153 27.8606 45.0724C28.0888 44.9267 28.4021 44.8354 28.82 44.8354V43.8354C28.2583 43.8354 27.7469 43.9586 27.3225 44.2295C26.8939 44.5031 26.5881 44.9061 26.4091 45.4039L27.3502 45.7423ZM27.2034 47.1678C27.2034 46.2419 27.2733 45.9542 27.3497 45.7435L26.4096 45.4027C26.2745 45.7755 26.2034 46.1996 26.2034 47.1678H27.2034ZM30.7361 45.5321C30.5937 45.1409 30.3548 44.8144 30.0103 44.5906C29.6694 44.3692 29.2624 44.2723 28.82 44.2723V45.2723C29.1181 45.2723 29.3236 45.3371 29.4655 45.4292C29.6037 45.519 29.7177 45.658 29.7964 45.8741L30.7361 45.5321ZM30.9161 47.1678C30.9161 46.2611 30.8459 45.8345 30.7362 45.5324L29.7963 45.8738C29.8452 46.0085 29.9161 46.2937 29.9161 47.1678H30.9161ZM30.7362 48.8031C30.8459 48.5011 30.9161 48.0744 30.9161 47.1678H29.9161C29.9161 48.0418 29.8452 48.327 29.7963 48.4617L30.7362 48.8031ZM28.82 50.0638C29.2625 50.0638 29.6696 49.9667 30.0105 49.745C30.3549 49.5211 30.5937 49.1945 30.7361 48.8034L29.7964 48.4615C29.7177 48.6776 29.6037 48.8168 29.4653 48.9067C29.3234 48.999 29.118 49.0638 28.82 49.0638V50.0638ZM26.8949 48.8026C27.0367 49.1944 27.2758 49.5215 27.6221 49.7456C27.9645 49.9672 28.374 50.0638 28.82 50.0638V49.0638C28.5162 49.0638 28.3081 48.9984 28.1654 48.9061C28.0267 48.8163 27.9132 48.6778 27.8352 48.4623L26.8949 48.8026ZM26.7146 47.1678C26.7146 48.075 26.7855 48.5014 26.8951 48.8031L27.835 48.4617C27.786 48.3267 27.7146 48.0412 27.7146 47.1678H26.7146ZM26.8951 45.5324C26.7855 45.8342 26.7146 46.2605 26.7146 47.1678H27.7146C27.7146 46.2943 27.786 46.0088 27.835 45.8738L26.8951 45.5324ZM28.82 44.2723C28.3742 44.2723 27.9647 44.3687 27.6223 44.59C27.2759 44.814 27.0367 45.1411 26.8949 45.5329L27.8352 45.8732C27.9132 45.6578 28.0266 45.5195 28.1652 45.4298C28.3079 45.3376 28.5161 45.2723 28.82 45.2723V44.2723Z" fill="#123752"/>
<path fill-rule="evenodd" clip-rule="evenodd" d="M36.1965 44.4158C36.1437 44.4158 36.1084 44.4487 36.1084 44.4972V49.8389C36.1084 49.8874 36.1437 49.9198 36.1965 49.9198H38.2074C39.3892 49.9198 40.0509 49.353 40.0509 48.4065C40.0509 47.6052 39.4685 47.1759 39.0278 47.095V47.0788C39.5831 46.9251 39.9539 46.512 39.9539 45.8406C39.9539 44.9745 39.3451 44.4158 38.2074 44.4158H36.1965ZM38.1993 46.9008C39.0102 46.9008 39.4509 46.4802 39.4509 45.881C39.4509 45.2501 39.0102 44.8532 38.1993 44.8532H36.6643C36.6284 44.8532 36.6114 44.8699 36.6114 44.9017V46.8523C36.6114 46.8847 36.6284 46.9008 36.6643 46.9008H38.1993ZM36.6643 49.4824H38.2427C39.0983 49.4824 39.5478 49.0618 39.5478 48.4141C39.5478 47.7669 39.0983 47.3376 38.2427 47.3376H36.6643C36.6284 47.3376 36.6114 47.3538 36.6114 47.3862V49.4338C36.6114 49.4668 36.6284 49.4824 36.6643 49.4824Z" fill="#123752"/>
<path d="M39.0278 47.095H38.5278V47.5115L38.9375 47.5868L39.0278 47.095ZM39.0278 47.0788L38.8944 46.5969L38.5278 46.6984V47.0788H39.0278ZM36.6084 44.4972C36.6084 44.5998 36.5679 44.7166 36.4726 44.805C36.3804 44.8904 36.2739 44.9158 36.1965 44.9158V43.9158C36.0663 43.9158 35.9157 43.9576 35.7927 44.0716C35.6665 44.1887 35.6084 44.3462 35.6084 44.4972H36.6084ZM36.6084 49.8389V44.4972H35.6084V49.8389H36.6084ZM36.1965 49.4198C36.2715 49.4198 36.3778 49.4438 36.4707 49.5291C36.5676 49.618 36.6084 49.7359 36.6084 49.8389H35.6084C35.6084 49.9904 35.6669 50.1487 35.7946 50.2659C35.9184 50.3795 36.0687 50.4198 36.1965 50.4198V49.4198ZM38.2074 49.4198H36.1965V50.4198H38.2074V49.4198ZM39.5509 48.4065C39.5509 48.7546 39.4347 48.9824 39.2529 49.1334C39.0582 49.295 38.7254 49.4198 38.2074 49.4198V50.4198C38.8713 50.4198 39.4601 50.2611 39.8917 49.9027C40.3362 49.5337 40.5509 49.0049 40.5509 48.4065H39.5509ZM38.9375 47.5868C39.1851 47.6322 39.5509 47.8888 39.5509 48.4065H40.5509C40.5509 47.3215 39.7519 46.7195 39.1181 46.6032L38.9375 47.5868ZM38.5278 47.0788V47.095H39.5278V47.0788H38.5278ZM39.4539 45.8406C39.4539 46.0809 39.3892 46.2389 39.3059 46.345C39.2209 46.4532 39.0882 46.5433 38.8944 46.5969L39.1612 47.5607C39.5227 47.4606 39.853 47.2673 40.0923 46.9627C40.3332 46.656 40.4539 46.2717 40.4539 45.8406H39.4539ZM38.2074 44.9158C38.7005 44.9158 39.0086 45.0371 39.1852 45.1858C39.3507 45.3252 39.4539 45.5326 39.4539 45.8406H40.4539C40.4539 45.2825 40.2527 44.7774 39.8294 44.4209C39.4172 44.0738 38.8521 43.9158 38.2074 43.9158V44.9158ZM36.1965 44.9158H38.2074V43.9158H36.1965V44.9158ZM38.9509 45.881C38.9509 46.05 38.8934 46.1597 38.8051 46.2349C38.7084 46.3172 38.5225 46.4008 38.1993 46.4008V47.4008C38.687 47.4008 39.1269 47.2741 39.4532 46.9964C39.788 46.7114 39.9509 46.3112 39.9509 45.881H38.9509ZM38.1993 45.3532C38.5294 45.3532 38.7136 45.4343 38.8071 45.513C38.8892 45.5821 38.9509 45.6899 38.9509 45.881H39.9509C39.9509 45.4412 39.7922 45.0351 39.4512 44.748C39.1216 44.4705 38.68 44.3532 38.1993 44.3532V45.3532ZM36.6643 45.3532H38.1993V44.3532H36.6643V45.3532ZM37.1114 44.9017C37.1114 44.9718 37.0911 45.1138 36.9658 45.2309C36.8469 45.342 36.7153 45.3532 36.6643 45.3532V44.3532C36.5775 44.3532 36.4195 44.3727 36.2831 44.5001C36.1403 44.6335 36.1114 44.7998 36.1114 44.9017H37.1114ZM37.1114 46.8523V44.9017H36.1114V46.8523H37.1114ZM36.6643 46.4008C36.7111 46.4008 36.8436 46.4103 36.9641 46.5218C37.0922 46.6405 37.1114 46.7847 37.1114 46.8523H36.1114C36.1114 46.9522 36.1391 47.1208 36.2847 47.2556C36.4227 47.3833 36.5817 47.4008 36.6643 47.4008V46.4008ZM38.1993 46.4008H36.6643V47.4008H38.1993V46.4008ZM38.2427 48.9824H36.6643V49.9824H38.2427V48.9824ZM39.0478 48.4141C39.0478 48.6149 38.983 48.7332 38.8926 48.8099C38.7915 48.8956 38.5946 48.9824 38.2427 48.9824V49.9824C38.7464 49.9824 39.2021 49.8588 39.5396 49.5723C39.8879 49.2768 40.0478 48.8609 40.0478 48.4141H39.0478ZM38.2427 47.8376C38.5922 47.8376 38.7888 47.9254 38.8905 48.0126C38.9827 48.0917 39.0478 48.2131 39.0478 48.4141H40.0478C40.0478 47.9679 39.8883 47.5511 39.5417 47.2537C39.2047 46.9646 38.7488 46.8376 38.2427 46.8376V47.8376ZM36.6643 47.8376H38.2427V46.8376H36.6643V47.8376ZM37.1114 47.3862C37.1114 47.4537 37.0922 47.598 36.9641 47.7166C36.8436 47.8282 36.7111 47.8376 36.6643 47.8376V46.8376C36.5817 46.8376 36.4227 46.8551 36.2847 46.9829C36.1391 47.1177 36.1114 47.2863 36.1114 47.3862H37.1114ZM37.1114 49.4338V47.3862H36.1114V49.4338H37.1114ZM36.6643 48.9824C36.7069 48.9824 36.8404 48.9901 36.9625 49.1021C37.0934 49.2222 37.1114 49.3689 37.1114 49.4338H36.1114C36.1114 49.5317 36.138 49.7027 36.2864 49.8388C36.4259 49.9669 36.5858 49.9824 36.6643 49.9824V48.9824Z" fill="#123752"/>
<path d="M45.1871 44.4972C45.1871 44.4487 45.2223 44.4158 45.2752 44.4158H45.6013C45.6542 44.4158 45.6901 44.4487 45.6901 44.4972V49.8389C45.6901 49.8874 45.6542 49.9198 45.6013 49.9198H45.2752C45.2223 49.9198 45.1871 49.8874 45.1871 49.8389V44.4972Z" fill="#123752" stroke="#123752"/>
<path d="M51.1282 44.4972C51.1282 44.4487 51.1634 44.4158 51.2163 44.4158H51.5424C51.5953 44.4158 51.6306 44.4487 51.6306 44.4972V49.4339C51.6306 49.4668 51.6482 49.4824 51.6835 49.4824H54.6469C54.6998 49.4824 54.7351 49.5153 54.7351 49.5639V49.8389C54.7351 49.8874 54.6998 49.9198 54.6469 49.9198H51.2163C51.1634 49.9198 51.1282 49.8874 51.1282 49.8389V44.4972Z" fill="#123752" stroke="#123752"/>
<path d="M59.5809 44.4972C59.5809 44.4487 59.6162 44.4158 59.6691 44.4158H59.9952C60.0481 44.4158 60.0833 44.4487 60.0833 44.4972V49.8389C60.0833 49.8874 60.0481 49.9198 59.9952 49.9198H59.6691C59.6162 49.9198 59.5809 49.8874 59.5809 49.8389V44.4972Z" fill="#123752" stroke="#123752"/>
<path fill-rule="evenodd" clip-rule="evenodd" d="M67.1704 44.4163C67.1175 44.4163 67.0823 44.4486 67.0646 44.4971L64.9656 49.8388C64.9486 49.8873 64.975 49.9197 65.0279 49.9197H65.3717C65.4245 49.9197 65.4598 49.9035 65.4862 49.8388L66.0151 48.4873H68.626L69.1549 49.8388C69.1725 49.9035 69.2077 49.9197 69.2694 49.9197H69.6138C69.6667 49.9197 69.6932 49.8873 69.6755 49.8388L67.5941 44.4971C67.5765 44.4486 67.55 44.4163 67.4883 44.4163H67.1704ZM67.3385 45.161L68.4585 48.0419H66.1832L67.312 45.161H67.3385Z" fill="#123752"/>
<path d="M67.0646 44.4971L67.5301 44.6801L67.5346 44.6678L67.0646 44.4971ZM64.9656 49.8388L64.5002 49.6559L64.4968 49.6647L64.4937 49.6735L64.9656 49.8388ZM65.4862 49.8388L65.9491 50.0279L65.9519 50.021L65.4862 49.8388ZM66.0151 48.4873V47.9873H65.6738L65.5495 48.3051L66.0151 48.4873ZM68.626 48.4873L69.0916 48.3051L68.9673 47.9873H68.626V48.4873ZM69.1549 49.8388L69.6373 49.7074L69.6302 49.6815L69.6205 49.6566L69.1549 49.8388ZM69.6755 49.8388L70.1456 49.668L70.1414 49.6573L69.6755 49.8388ZM67.5941 44.4971L67.124 44.6679L67.1282 44.6787L67.5941 44.4971ZM68.4585 48.0419V48.5419H69.1894L68.9245 47.8607L68.4585 48.0419ZM67.3385 45.161L67.8045 44.9798L67.6806 44.661H67.3385V45.161ZM66.1832 48.0419L65.7177 47.8595L65.4503 48.5419H66.1832V48.0419ZM67.312 45.161V44.661H66.971L66.8465 44.9786L67.312 45.161ZM67.5346 44.6678C67.5198 44.7086 67.4867 44.7727 67.4173 44.8284C67.3425 44.8885 67.2529 44.9163 67.1704 44.9163V43.9163C66.8565 43.9163 66.6651 44.1325 66.5947 44.3265L67.5346 44.6678ZM65.4309 50.0217L67.53 44.68L66.5993 44.3143L64.5002 49.6559L65.4309 50.0217ZM65.0279 49.4197C65.0922 49.4197 65.2473 49.4401 65.364 49.589C65.4894 49.7489 65.4662 49.9219 65.4375 50.0041L64.4937 49.6735C64.4479 49.8042 64.4294 50.0176 64.577 50.2059C64.7159 50.3831 64.9108 50.4197 65.0279 50.4197V49.4197ZM65.3717 49.4197H65.0279V50.4197H65.3717V49.4197ZM65.0234 49.6497C65.0329 49.6263 65.0705 49.5464 65.167 49.4839C65.2628 49.4218 65.3514 49.4197 65.3717 49.4197V50.4197C65.4448 50.4197 65.5775 50.4095 65.7107 50.3231C65.8447 50.2364 65.9131 50.1159 65.9491 50.0279L65.0234 49.6497ZM65.5495 48.3051L65.0206 49.6566L65.9519 50.021L66.4807 48.6696L65.5495 48.3051ZM68.626 47.9873H66.0151V48.9873H68.626V47.9873ZM69.6205 49.6566L69.0916 48.3051L68.1604 48.6696L68.6892 50.021L69.6205 49.6566ZM69.2694 49.4197C69.2736 49.4197 69.2964 49.4197 69.329 49.4264C69.3637 49.4336 69.414 49.4492 69.4675 49.4839C69.5875 49.5616 69.6269 49.6693 69.6373 49.7074L68.6724 49.9702C68.7004 50.0729 68.7663 50.2211 68.9238 50.3231C69.0655 50.4149 69.2088 50.4197 69.2694 50.4197V49.4197ZM69.6138 49.4197H69.2694V50.4197H69.6138V49.4197ZM69.2056 50.0095C69.1759 49.9277 69.1501 49.7528 69.2765 49.5903C69.3937 49.4398 69.5502 49.4197 69.6138 49.4197V50.4197C69.7304 50.4197 69.9265 50.3834 70.0657 50.2045C70.2141 50.0138 70.1928 49.7984 70.1455 49.6681L69.2056 50.0095ZM67.1282 44.6787L69.2096 50.0203L70.1414 49.6573L68.06 44.3156L67.1282 44.6787ZM67.4883 44.9163C67.425 44.9163 67.324 44.8966 67.2325 44.8182C67.154 44.751 67.1277 44.6777 67.1241 44.6678L68.0641 44.3265C68.0429 44.2681 67.9946 44.1543 67.883 44.0588C67.7584 43.9521 67.6133 43.9163 67.4883 43.9163V44.9163ZM67.1704 44.9163H67.4883V43.9163H67.1704V44.9163ZM68.9245 47.8607L67.8045 44.9798L66.8725 45.3422L67.9925 48.2231L68.9245 47.8607ZM66.1832 48.5419H68.4585V47.5419H66.1832V48.5419ZM66.8465 44.9786L65.7177 47.8595L66.6487 48.2243L67.7776 45.3434L66.8465 44.9786ZM67.3385 44.661H67.312V45.661H67.3385V44.661Z" fill="#123752"/>
<path fill-rule="evenodd" clip-rule="evenodd" d="M78.0044 49.8472C78.0309 49.9033 78.0573 49.92 78.1102 49.92H78.5156C78.5685 49.92 78.595 49.879 78.5603 49.8305L77.2552 47.3945C78.022 47.2252 78.481 46.6983 78.481 45.9379C78.481 44.999 77.7834 44.416 76.6546 44.416H74.6443C74.5914 44.416 74.5562 44.4489 74.5562 44.4975V49.8391C74.5562 49.8877 74.5914 49.92 74.6443 49.92H74.9711C75.0239 49.92 75.0586 49.8877 75.0586 49.8391V47.5083C75.0586 47.4754 75.0768 47.4598 75.1114 47.4598H76.6546H76.7433L78.0044 49.8472ZM76.6464 44.8534C77.5014 44.8534 77.978 45.2503 77.978 45.9379C77.978 46.6336 77.5014 47.0224 76.6464 47.0224H75.1114C75.0768 47.0224 75.0586 47.0062 75.0586 46.9739V44.9019C75.0586 44.8696 75.0768 44.8534 75.1114 44.8534H76.6464Z" fill="#123752"/>
<path d="M78.0044 49.8472L78.4566 49.6339L78.4518 49.6237L78.4465 49.6137L78.0044 49.8472ZM78.5603 49.8305L78.1196 50.0666L78.1347 50.0948L78.1533 50.1209L78.5603 49.8305ZM77.2552 47.3945L77.1474 46.9063L76.5026 47.0486L76.8145 47.6306L77.2552 47.3945ZM76.7433 47.4598L77.1855 47.2263L77.0447 46.9598H76.7433V47.4598ZM78.1102 49.42C78.1335 49.42 78.228 49.423 78.3278 49.4907C78.42 49.5531 78.4545 49.6294 78.4566 49.6339L77.5522 50.0606C77.5808 50.1211 77.6417 50.2338 77.767 50.3186C77.8998 50.4086 78.034 50.42 78.1102 50.42V49.42ZM78.5156 49.42H78.1102V50.42H78.5156V49.42ZM78.1533 50.1209C78.1009 50.0474 78.0192 49.8607 78.1317 49.6542C78.2379 49.4594 78.4247 49.42 78.5156 49.42V50.42C78.6595 50.42 78.8859 50.3601 79.0099 50.1326C79.1402 49.8935 79.0544 49.662 78.9674 49.5401L78.1533 50.1209ZM76.8145 47.6306L78.1196 50.0666L79.0011 49.5943L77.6959 47.1584L76.8145 47.6306ZM77.981 45.9379C77.981 46.2133 77.8999 46.4166 77.7746 46.5642C77.6471 46.7143 77.4446 46.8407 77.1474 46.9063L77.363 47.8827C77.8327 47.7791 78.2431 47.5573 78.5368 47.2115C78.8326 46.8632 78.981 46.4229 78.981 45.9379H77.981ZM76.6546 44.916C77.1379 44.916 77.4695 45.0409 77.6709 45.2089C77.8618 45.3681 77.981 45.6023 77.981 45.9379H78.981C78.981 45.3347 78.7515 44.8079 78.3113 44.4409C77.8818 44.0826 77.3001 43.916 76.6546 43.916V44.916ZM74.6443 44.916H76.6546V43.916H74.6443V44.916ZM75.0562 44.4975C75.0562 44.6 75.0157 44.7168 74.9203 44.8052C74.8282 44.8907 74.7216 44.916 74.6443 44.916V43.916C74.5141 43.916 74.3635 43.9578 74.2405 44.0719C74.1142 44.1889 74.0562 44.3464 74.0562 44.4975H75.0562ZM75.0562 49.8391V44.4975H74.0562V49.8391H75.0562ZM74.6443 49.42C74.7193 49.42 74.8255 49.4441 74.9185 49.5294C75.0153 49.6183 75.0562 49.7362 75.0562 49.8391H74.0562C74.0562 49.9906 74.1146 50.149 74.2423 50.2661C74.3661 50.3798 74.5164 50.42 74.6443 50.42V49.42ZM74.9711 49.42H74.6443V50.42H74.9711V49.42ZM74.5586 49.8391C74.5586 49.739 74.5976 49.6212 74.6947 49.5311C74.7884 49.4443 74.8959 49.42 74.9711 49.42V50.42C75.0991 50.42 75.2504 50.3796 75.3746 50.2644C75.5022 50.1461 75.5586 49.9878 75.5586 49.8391H74.5586ZM74.5586 47.5083V49.8391H75.5586V47.5083H74.5586ZM75.1114 46.9598C75.0292 46.9598 74.8738 46.9772 74.7372 47.1003C74.5908 47.2324 74.5586 47.4007 74.5586 47.5083H75.5586C75.5586 47.583 75.5355 47.7271 75.4068 47.8431C75.288 47.9502 75.1591 47.9598 75.1114 47.9598V46.9598ZM76.6546 46.9598H75.1114V47.9598H76.6546V46.9598ZM76.7433 46.9598H76.6546V47.9598H76.7433V46.9598ZM78.4465 49.6137L77.1855 47.2263L76.3012 47.6933L77.5623 50.0807L78.4465 49.6137ZM78.478 45.9379C78.478 45.4696 78.3099 45.0462 77.9497 44.751C77.6041 44.4679 77.1432 44.3534 76.6464 44.3534V45.3534C77.0045 45.3534 77.2094 45.4373 77.3159 45.5246C77.4078 45.5998 77.478 45.7186 77.478 45.9379H78.478ZM76.6464 47.5224C77.141 47.5224 77.6022 47.4109 77.9486 47.1286C78.3108 46.8336 78.478 46.4088 78.478 45.9379H77.478C77.478 46.1626 77.4069 46.2802 77.317 46.3534C77.2114 46.4395 77.0068 46.5224 76.6464 46.5224V47.5224ZM75.1114 47.5224H76.6464V46.5224H75.1114V47.5224ZM74.5586 46.9739C74.5586 47.0835 74.592 47.2496 74.7356 47.3802C74.8706 47.5029 75.025 47.5224 75.1114 47.5224V46.5224C75.1633 46.5224 75.2913 46.5338 75.4085 46.6404C75.5343 46.7548 75.5586 46.8966 75.5586 46.9739H74.5586ZM74.5586 44.9019V46.9739H75.5586V44.9019H74.5586ZM75.1114 44.3534C75.025 44.3534 74.8706 44.3729 74.7356 44.4957C74.592 44.6263 74.5586 44.7923 74.5586 44.9019H75.5586C75.5586 44.9792 75.5343 45.121 75.4085 45.2354C75.2913 45.342 75.1633 45.3534 75.1114 45.3534V44.3534ZM76.6464 44.3534H75.1114V45.3534H76.6464V44.3534Z" fill="#123752"/>
<path d="M83.7579 44.4972C83.7579 44.4487 83.7931 44.4158 83.846 44.4158H84.1721C84.225 44.4158 84.2609 44.4487 84.2609 44.4972V49.8389C84.2609 49.8874 84.225 49.9198 84.1721 49.9198H83.846C83.7931 49.9198 83.7579 49.8874 83.7579 49.8389V44.4972Z" fill="#123752" stroke="#123752"/>
<path fill-rule="evenodd" clip-rule="evenodd" d="M91.348 44.4163C91.2951 44.4163 91.2592 44.4486 91.2422 44.4971L89.1431 49.8388C89.1255 49.8873 89.1519 49.9197 89.2048 49.9197H89.5492C89.6021 49.9197 89.6367 49.9035 89.6632 49.8388L90.1927 48.4873H92.8036L93.3318 49.8388C93.35 49.9035 93.3847 49.9197 93.447 49.9197H93.7908C93.8436 49.9197 93.8701 49.8873 93.8525 49.8388L91.771 44.4971C91.754 44.4486 91.7276 44.4163 91.6653 44.4163H91.348ZM91.5154 45.161L92.6355 48.0419H90.3601L91.489 45.161H91.5154Z" fill="#123752"/>
<path d="M91.2422 44.4971L91.7075 44.68L91.711 44.6713L91.7141 44.6624L91.2422 44.4971ZM89.1431 49.8388L88.6776 49.6559L88.6732 49.6681L89.1431 49.8388ZM89.6632 49.8388L90.1261 50.0279L90.1287 50.0212L89.6632 49.8388ZM90.1927 48.4873V47.9873H89.8515L89.7271 48.3049L90.1927 48.4873ZM92.8036 48.4873L93.2693 48.3053L93.145 47.9873H92.8036V48.4873ZM93.3318 49.8388L93.813 49.703L93.8064 49.6795L93.7975 49.6568L93.3318 49.8388ZM93.8525 49.8388L94.3225 49.668L94.3183 49.6573L93.8525 49.8388ZM91.771 44.4971L91.2991 44.6624L91.302 44.6706L91.3052 44.6787L91.771 44.4971ZM92.6355 48.0419V48.5419H93.3663L93.1015 47.8607L92.6355 48.0419ZM91.5154 45.161L91.9814 44.9798L91.8575 44.661H91.5154V45.161ZM90.3601 48.0419L89.8946 47.8595L89.6272 48.5419H90.3601V48.0419ZM91.489 45.161V44.661H91.1479L91.0234 44.9786L91.489 45.161ZM91.7141 44.6624C91.6983 44.7075 91.6639 44.773 91.5938 44.829C91.519 44.8889 91.4299 44.9163 91.348 44.9163V43.9163C91.0376 43.9163 90.8414 44.1289 90.7703 44.3319L91.7141 44.6624ZM89.6085 50.0217L91.7075 44.68L90.7768 44.3143L88.6778 49.6559L89.6085 50.0217ZM89.2048 49.4197C89.2685 49.4197 89.425 49.4398 89.5421 49.5903C89.6685 49.7528 89.6428 49.9277 89.6131 50.0095L88.6732 49.6681C88.6258 49.7984 88.6045 50.0138 88.753 50.2045C88.8922 50.3834 89.0883 50.4197 89.2048 50.4197V49.4197ZM89.5492 49.4197H89.2048V50.4197H89.5492V49.4197ZM89.2003 49.6497C89.2091 49.6282 89.246 49.548 89.3426 49.4849C89.4392 49.4218 89.529 49.4197 89.5492 49.4197V50.4197C89.6224 50.4197 89.7558 50.4095 89.8896 50.3221C90.0233 50.2347 90.0908 50.1141 90.126 50.0279L89.2003 49.6497ZM89.7271 48.3049L89.1976 49.6564L90.1287 50.0212L90.6582 48.6697L89.7271 48.3049ZM92.8036 47.9873H90.1927V48.9873H92.8036V47.9873ZM93.7975 49.6568L93.2693 48.3053L92.3379 48.6694L92.8661 50.0208L93.7975 49.6568ZM93.447 49.4197C93.4508 49.4197 93.4734 49.4197 93.506 49.4264C93.5407 49.4335 93.5912 49.4492 93.6447 49.4839C93.7642 49.5613 93.8032 49.6682 93.813 49.703L92.8506 49.9746C92.8787 50.0741 92.944 50.2214 93.101 50.3231C93.243 50.4151 93.3866 50.4197 93.447 50.4197V49.4197ZM93.7908 49.4197H93.447V50.4197H93.7908V49.4197ZM93.3825 50.0095C93.3528 49.9277 93.3271 49.7528 93.4535 49.5903C93.5706 49.4398 93.7271 49.4197 93.7908 49.4197V50.4197C93.9073 50.4197 94.1034 50.3834 94.2426 50.2045C94.3911 50.0138 94.3698 49.7984 94.3224 49.6681L93.3825 50.0095ZM91.3052 44.6787L93.3866 50.0203L94.3183 49.6573L92.2369 44.3156L91.3052 44.6787ZM91.6653 44.9163C91.6039 44.9163 91.5024 44.8975 91.4099 44.8182C91.3297 44.7496 91.3033 44.6742 91.2991 44.6624L92.2429 44.3319C92.2218 44.2716 92.1737 44.1558 92.0604 44.0588C91.9348 43.9512 91.789 43.9163 91.6653 43.9163V44.9163ZM91.348 44.9163H91.6653V43.9163H91.348V44.9163ZM93.1015 47.8607L91.9814 44.9798L91.0494 45.3422L92.1694 48.2231L93.1015 47.8607ZM90.3601 48.5419H92.6355V47.5419H90.3601V48.5419ZM91.0234 44.9786L89.8946 47.8595L90.8257 48.2243L91.9545 45.3434L91.0234 44.9786ZM91.5154 44.661H91.489V45.661H91.5154V44.661Z" fill="#123752"/>
</svg>
